<svg xmlns="http://www.w3.org/2000/svg" viewBox="0 0 1700 320"><title>装饰性河流区域示意，非真实地理数据</title><defs><linearGradient id="terrain" x2=".7" y2="1"><stop stop-color="#112d32"/><stop offset="1" stop-color="#152f32"/></linearGradient><linearGradient id="water" x2="0" y2="1"><stop stop-color="#256d78"/><stop offset=".5" stop-color="#1f5965"/><stop offset="1" stop-color="#297e86"/></linearGradient><filter id="noise"><feTurbulence type="fractalNoise" baseFrequency=".035" numOctaves="3" seed="17"/><feColorMatrix type="saturate" values="0"/><feBlend in="SourceGraphic" mode="soft-light"/></filter><pattern id="fields" width="43" height="28" patternTransform="rotate(-16)" patternUnits="userSpaceOnUse"><path d="M0 0h40v25H0z" fill="none" stroke="#698371" stroke-width=".8" opacity=".17"/></pattern><path id="river" d="M-60 265 C100 255 95 85 235 95 S380 250 510 186 S595 35 740 90 S915 253 1025 175 S1130 50 1250 113 S1370 240 1480 155 S1650 235 1780 135"/></defs><path fill="url(#terrain)" d="M0 0h1700v320H0z"/><g opacity=".14" filter="url(#noise)"><path fill="#739184" d="M0 0h1700v320H0z"/></g><polyline points="513.2,30.0 519.7,42.9 522.7,56.2 521.5,69.5 515.4,82.2 504.8,93.5 490.3,103.1 473.2,110.7 454.7,116.5 436.3,121.0 419.1,124.8 403.7,128.7 390.3,133.5 378.5,139.6 367.6,147.2 356.6,156.1 344.7,165.7 331.1,175.2 315.7,183.5 298.5,189.9 280.0,193.5 261.1,194.1 242.5,191.6 224.9,186.6 208.7,179.6 194.0,171.5 180.6,163.1 167.7,154.9 154.9,147.4 141.7,140.4 127.7,133.8 113.2,127.1 98.7,119.8 85.1,111.4 73.3,101.8 64.5,90.9 59.3,78.9 58.1,66.3 60.5,53.7 65.9,41.5 73.2,30.0 81.0,19.3 88.2,9.3 93.6,-0.5 97.0,-10.5 98.3,-21.3 98.3,-33.1 98.0,-46.0 98.7,-59.8 101.7,-73.8 107.9,-87.3 117.9,-99.4 131.7,-109.2 148.6,-116.2 167.8,-120.1 188.2,-121.0 208.7,-119.6 228.4,-116.5 246.8,-112.8 263.9,-109.2 280.0,-106.5 295.6,-105.0 311.3,-104.7 327.6,-105.1 344.7,-105.7 362.4,-105.7 380.3,-104.2 397.6,-100.9 413.6,-95.3 427.4,-87.7 438.9,-78.3 447.8,-67.7 454.7,-56.5 460.2,-45.3 465.4,-34.4 471.0,-23.9 477.8,-13.8 485.9,-3.7 495.1,6.8 504.6,17.9 513.2,30.0" fill="none" stroke="#477367" stroke-width=".9" opacity=".5"/><polyline points="532.2,30.0 538.4,43.9 540.2,58.1 537.1,72.1 528.7,85.2 515.7,96.6 499.1,106.2 480.3,113.7 460.8,119.6 442.1,124.5 425.0,129.0 410.1,133.9 397.2,140.1 385.7,147.7 374.7,156.8 363.1,166.9 350.1,177.2 335.2,186.9 318.3,194.9 299.7,200.4 280.0,202.9 260.1,202.1 240.9,198.5 222.8,192.6 206.1,185.2 190.7,177.1 176.1,169.1 161.8,161.6 147.2,154.8 131.8,148.4 115.8,142.0 99.5,135.2 83.8,127.3 69.7,117.9 58.3,107.1 50.5,94.9 46.9,81.7 47.5,68.1 51.6,54.7 58.3,41.9 66.2,30.0 73.8,18.9 80.0,8.4 84.0,-2.1 85.5,-13.1 85.2,-25.1 83.9,-38.2 82.9,-52.4 83.8,-67.3 87.7,-82.1 95.5,-95.9 107.5,-107.9 123.3,-117.2 142.2,-123.4 163.1,-126.6 184.8,-126.9 206.1,-125.2 226.4,-122.3 245.4,-119.2 263.1,-116.6 280.0,-115.1 296.7,-114.9 313.8,-115.6 331.6,-116.6 350.1,-117.2 369.0,-116.7 387.7,-114.2 405.3,-109.5 421.1,-102.5 434.5,-93.4 445.3,-82.8 453.9,-71.3 460.8,-59.6 467.0,-48.2 473.5,-37.3 481.0,-26.8 490.1,-16.6 500.6,-6.1 511.9,4.9 522.9,17.0 532.2,30.0" fill="none" stroke="#32584f" stroke-width=".55" opacity=".5"/><polyline points="551.4,30.0 556.7,44.9 556.9,60.0 551.5,74.5 540.7,87.8 525.3,99.4 506.8,108.9 486.7,116.5 466.7,122.7 448.1,128.0 431.5,133.5 417.3,139.8 404.9,147.4 393.6,156.6 382.2,167.0 369.8,178.1 355.6,188.9 339.2,198.4 320.8,205.7 300.8,210.1 280.0,211.3 259.3,209.3 239.5,204.7 220.9,198.1 203.6,190.6 187.2,182.9 171.3,175.6 155.3,169.0 138.6,162.9 121.1,157.1 103.1,150.8 85.3,143.6 68.7,134.8 54.6,124.3 43.9,112.1 37.6,98.6 35.8,84.2 38.2,69.6 43.9,55.5 51.4,42.3 59.4,30.0 66.3,18.5 71.0,7.4 73.1,-3.9 72.8,-16.0 70.8,-29.2 68.4,-43.6 67.2,-59.0 68.7,-74.8 74.0,-90.2 83.6,-104.1 97.8,-115.7 115.7,-124.4 136.5,-129.9 158.9,-132.4 181.5,-132.3 203.6,-130.6 224.4,-128.3 243.8,-126.1 262.2,-124.8 280.0,-124.7 297.9,-125.7 316.5,-127.2 335.7,-128.6 355.6,-128.9 375.5,-127.5 394.7,-123.7 412.3,-117.5 427.8,-108.9 440.6,-98.4 451.0,-86.8 459.4,-74.6 466.7,-62.7 474.1,-51.2 482.3,-40.4 492.2,-30.0 503.7,-19.6 516.6,-8.8 529.8,3.0 541.9,15.9 551.4,30.0" fill="none" stroke="#32584f" stroke-width=".55" opacity=".5"/><polyline points="570.4,30.0 574.4,45.8 572.5,61.7 564.6,76.7 551.2,90.2 533.7,101.8 513.7,111.4 492.8,119.1 472.8,125.7 454.6,131.9 438.9,138.6 425.4,146.4 413.5,155.6 402.2,166.3 390.2,177.9 376.7,189.6 361.1,200.5 343.1,209.5 323.1,215.8 301.7,218.9 280.0,218.7 258.6,215.5 238.3,210.1 219.1,203.4 201.0,196.2 183.5,189.2 166.0,182.9 148.0,177.2 129.1,171.9 109.5,166.4 89.7,160.1 70.7,152.2 53.7,142.3 40.0,130.5 30.6,116.8 26.0,101.9 26.1,86.4 30.2,71.0 37.0,56.3 45.0,42.6 52.4,30.0 58.0,18.1 60.9,6.3 60.9,-6.0 58.6,-19.2 55.1,-33.6 52.1,-49.3 51.2,-65.8 53.7,-82.3 60.8,-98.0 72.6,-111.7 89.0,-122.8 109.1,-130.8 131.5,-135.6 155.1,-137.6 178.5,-137.4 201.0,-136.2 222.1,-134.7 242.0,-133.9 261.1,-134.0 280.0,-135.3 299.3,-137.4 319.3,-139.5 340.0,-140.8 361.1,-140.5 381.7,-137.9 401.2,-132.5 418.6,-124.6 433.6,-114.5 445.9,-102.7 456.0,-90.2 464.6,-77.7 472.8,-65.7 481.7,-54.5 492.2,-43.9 504.6,-33.6 518.8,-23.0 533.9,-11.7 548.7,0.9 561.4,14.9 570.4,30.0" fill="none" stroke="#477367" stroke-width=".9" opacity=".5"/><polyline points="588.9,30.0 591.0,46.7 586.6,63.2 576.1,78.6 560.4,92.3 541.1,103.9 520.0,113.6 498.9,121.7 479.3,129.0 462.0,136.3 447.3,144.4 434.6,153.7 423.0,164.6 411.4,176.6 398.5,189.1 383.7,201.1 366.3,211.7 346.6,219.8 325.1,224.9 302.6,226.5 280.0,225.0 258.0,221.0 237.1,215.2 217.3,208.6 198.2,202.1 179.4,196.1 160.1,191.0 139.9,186.4 118.8,181.7 97.1,176.4 75.8,169.6 56.1,160.8 39.2,149.6 26.4,136.3 18.6,121.1 15.9,104.8 17.9,88.2 23.4,72.1 30.9,57.0 38.6,43.0 44.9,30.0 48.7,17.6 49.3,5.0 47.1,-8.2 43.0,-22.7 38.5,-38.4 35.3,-55.3 35.1,-72.6 39.2,-89.6 48.4,-105.3 62.6,-118.7 81.3,-129.1 103.2,-136.4 127.1,-140.6 151.6,-142.4 175.5,-142.5 198.2,-142.1 219.7,-141.9 240.0,-142.6 259.9,-144.3 280.0,-147.0 300.7,-149.9 322.2,-152.2 344.3,-153.1 366.3,-151.7 387.5,-147.5 407.0,-140.5 424.1,-130.8 438.5,-119.2 450.4,-106.5 460.5,-93.4 469.7,-80.8 479.3,-69.0 490.3,-58.1 503.3,-47.8 518.5,-37.6 535.2,-26.7 552.3,-14.7 568.2,-1.2 580.9,13.8 588.9,30.0" fill="none" stroke="#32584f" stroke-width=".55" opacity=".5"/><polyline points="606.4,30.0 606.2,47.6 599.2,64.6 586.1,80.3 568.3,94.1 547.6,105.9 526.1,115.8 505.3,124.5 486.6,132.7 470.5,141.3 456.8,150.9 444.7,162.0 433.2,174.3 421.0,187.4 406.9,200.5 390.4,212.4 371.3,222.3 349.9,229.2 327.0,232.8 303.4,233.1 280.0,230.5 257.5,225.9 236.0,220.1 215.4,214.1 195.2,208.6 174.7,204.0 153.4,200.1 131.0,196.4 107.7,192.3 84.2,186.8 61.8,179.3 41.7,169.2 25.5,156.5 14.0,141.5 8.0,124.8 7.2,107.3 10.8,89.8 17.3,73.2 24.9,57.6 31.8,43.4 36.4,30.0 38.0,17.0 36.2,3.6 31.8,-10.8 26.2,-26.4 21.0,-43.4 18.2,-61.3 19.3,-79.3 25.5,-96.5 37.0,-112.0 53.7,-124.8 74.5,-134.6 98.2,-141.2 123.1,-145.1 148.2,-147.0 172.3,-147.9 195.2,-148.6 216.8,-150.0 237.8,-152.3 258.6,-155.7 280.0,-159.5 302.2,-162.9 325.2,-165.1 348.5,-165.1 371.3,-162.3 392.8,-156.3 412.1,-147.4 428.8,-136.1 442.7,-123.2 454.4,-109.7 464.8,-96.5 475.2,-84.1 486.6,-72.7 500.0,-62.3 515.9,-52.2 533.8,-41.9 552.9,-30.7 571.6,-17.9 587.9,-3.4 600.0,12.8 606.4,30.0" fill="none" stroke="#32584f" stroke-width=".55" opacity=".5"/><polyline points="622.6,30.0 619.8,48.3 610.1,65.8 594.6,81.7 575.2,95.7 553.8,107.6 532.4,118.0 512.4,127.5 495.0,136.9 480.2,147.0 467.5,158.3 455.8,170.9 444.0,184.6 430.8,198.5 415.3,211.7 396.9,223.2 375.9,232.0 352.8,237.6 328.5,239.7 304.0,238.7 280.0,235.3 257.0,230.4 234.9,225.1 213.3,220.1 191.7,216.0 169.4,212.8 145.9,210.2 121.2,207.3 96.0,203.4 71.1,197.5 47.9,188.9 28.1,177.3 12.8,162.9 3.0,146.2 -1.1,128.0 -0.1,109.4 4.8,91.2 11.7,74.1 18.8,58.3 24.2,43.8 26.6,30.0 25.6,16.3 21.4,2.0 15.1,-13.5 8.4,-30.4 3.2,-48.5 1.3,-67.2 4.3,-85.7 12.8,-102.9 26.9,-118.0 46.0,-130.2 68.8,-139.3 93.7,-145.5 119.4,-149.4 144.7,-151.8 168.8,-153.7 191.7,-156.0 213.7,-159.2 235.3,-163.3 257.2,-168.0 280.0,-172.7 303.7,-176.3 328.1,-177.9 352.5,-176.6 375.9,-172.0 397.5,-164.1 416.5,-153.4 432.7,-140.5 446.3,-126.7 458.1,-112.8 469.3,-99.6 481.3,-87.7 495.0,-76.9 511.2,-67.0 530.0,-57.2 550.6,-46.7 571.6,-34.9 591.2,-21.2 607.4,-5.5 618.3,11.8 622.6,30.0" fill="none" stroke="#477367" stroke-width=".9" opacity=".5"/><polyline points="637.2,30.0 631.6,49.0 619.3,66.8 602.0,82.9 581.5,97.1 559.9,109.4 539.2,120.5 520.6,131.0 504.7,141.8 491.2,153.5 479.3,166.5 467.8,180.6 455.3,195.3 440.7,209.6 423.3,222.6 402.9,233.2 380.0,240.7 355.3,244.7 329.8,245.4 304.5,243.4 280.0,239.6 256.4,235.0 233.6,230.5 211.0,227.0 187.7,224.5 163.4,222.8 137.7,221.3 110.9,219.0 83.8,214.9 57.9,208.1 34.5,198.1 15.3,184.8 1.4,168.6 -6.5,150.2 -8.7,130.8 -6.2,111.2 -0.6,92.4 6.1,75.0 12.0,59.1 15.3,44.3 15.2,30.0 11.5,15.5 5.0,0.2 -2.8,-16.5 -10.1,-34.6 -14.7,-53.6 -15.0,-72.9 -9.7,-91.6 1.4,-108.6 18.2,-123.1 39.5,-134.7 63.8,-143.3 89.7,-149.4 115.7,-153.6 140.9,-157.0 164.9,-160.4 187.7,-164.5 210.1,-169.5 232.5,-175.3 255.7,-181.3 280.0,-186.4 305.2,-189.7 330.9,-190.2 356.2,-187.3 380.0,-180.7 401.4,-170.8 420.1,-158.3 435.9,-144.2 449.4,-129.7 461.8,-115.8 474.3,-103.1 488.3,-91.8 504.7,-81.8 523.9,-72.3 545.5,-62.6 568.4,-51.8 591.0,-39.2 610.9,-24.4 626.3,-7.6 635.4,10.8 637.2,30.0" fill="none" stroke="#32584f" stroke-width=".55" opacity=".5"/><polyline points="650.0,30.0 641.6,49.5 627.2,67.7 608.4,84.0 587.5,98.5 566.5,111.3 547.0,123.2 530.1,135.0 515.8,147.4 503.6,160.8 492.2,175.4 480.3,190.7 466.7,206.1 450.3,220.4 430.8,232.8 408.3,242.2 383.5,248.2 357.3,250.7 330.9,250.2 305.0,247.5 280.0,243.7 255.9,239.8 232.2,236.7 208.2,234.9 183.2,234.1 156.7,233.9 128.8,233.3 100.0,231.2 71.6,226.6 44.9,218.6 21.9,206.9 3.7,191.7 -8.4,173.6 -14.5,153.6 -15.0,133.0 -11.5,112.7 -5.7,93.6 0.1,76.0 4.1,59.9 4.9,44.8 2.0,30.0 -4.4,14.7 -12.9,-1.8 -21.7,-19.6 -28.8,-38.8 -32.2,-58.6 -30.3,-78.3 -22.4,-97.0 -8.4,-113.6 10.8,-127.5 34.0,-138.6 59.5,-146.9 85.8,-153.1 111.7,-158.1 136.6,-162.8 160.3,-168.0 183.2,-174.1 206.1,-181.1 229.5,-188.4 254.1,-195.1 280.0,-200.3 306.7,-202.8 333.6,-201.8 359.5,-196.9 383.5,-188.2 404.7,-176.3 423.0,-162.3 438.6,-147.3 452.4,-132.6 465.8,-119.0 480.1,-107.1 496.5,-96.7 515.8,-87.4 538.0,-78.3 562.3,-68.6 587.2,-57.2 610.6,-43.6 630.2,-27.6 644.1,-9.5 650.9,10.0 650.0,30.0" fill="none" stroke="#32584f" stroke-width=".55" opacity=".5"/><polyline points="660.8,30.0 650.0,50.0 633.8,68.4 614.3,85.0 593.7,99.9 573.9,113.4 556.2,126.5 541.2,139.7 528.5,153.8 517.2,168.9 505.9,184.9 493.2,201.1 478.0,216.8 459.5,230.7 437.6,242.0 412.9,250.0 386.4,254.4 359.0,255.5 331.8,254.1 305.4,251.2 280.0,247.9 255.3,245.3 230.6,244.0 205.1,244.0 178.1,245.0 149.4,246.1 119.4,246.1 88.9,243.8 59.4,238.1 32.6,228.5 10.3,214.9 -6.4,197.7 -16.8,177.8 -21.1,156.5 -20.3,134.9 -16.3,114.1 -11.1,94.8 -6.8,77.2 -5.3,61.0 -7.4,45.5 -13.2,30.0 -21.9,13.7 -31.9,-3.9 -41.1,-22.8 -47.3,-42.9 -48.8,-63.4 -44.3,-83.3 -33.5,-101.7 -16.8,-117.8 4.7,-131.2 29.3,-141.8 55.5,-150.2 81.8,-157.0 107.3,-163.2 131.6,-169.6 155.0,-176.8 178.1,-185.0 201.7,-193.7 226.3,-202.2 252.5,-209.4 280.0,-214.1 308.2,-215.3 336.0,-212.4 362.4,-205.3 386.4,-194.4 407.4,-180.8 425.4,-165.6 441.1,-150.2 455.6,-135.7 470.4,-122.8 486.9,-111.8 506.1,-102.4 528.5,-93.8 553.6,-84.9 580.2,-74.9 606.4,-62.7 629.9,-47.9 648.5,-30.6 660.4,-11.3 664.6,9.3 660.8,30.0" fill="none" stroke="#477367" stroke-width=".9" opacity=".5"/><polyline points="669.9,30.0 657.0,50.3 639.7,69.1 620.2,86.0 600.6,101.4 582.6,115.9 567.0,130.3 553.9,145.1 542.7,160.9 531.9,177.5 520.2,194.7 506.1,211.6 488.8,227.1 467.9,240.2 443.6,250.2 416.9,256.6 388.7,259.5 360.3,259.4 332.6,257.5 305.8,254.9 280.0,252.7 254.5,251.7 228.6,252.4 201.4,254.4 172.4,257.0 141.6,259.1 109.6,259.3 77.8,256.3 47.7,249.2 21.2,237.8 -0.0,222.0 -15.1,202.8 -23.7,181.3 -26.4,158.8 -24.9,136.5 -21.1,115.5 -17.1,96.2 -15.1,78.6 -16.4,62.2 -21.6,46.3 -30.1,30.0 -40.8,12.7 -51.7,-6.0 -60.5,-26.0 -65.1,-46.9 -64.1,-67.7 -56.7,-87.6 -42.9,-105.7 -23.7,-121.3 -0.4,-134.2 25.2,-144.7 51.5,-153.4 77.4,-161.2 102.1,-169.0 125.8,-177.5 149.0,-186.9 172.4,-197.0 196.9,-207.3 223.1,-216.6 250.9,-223.6 280.0,-227.3 309.5,-226.8 338.1,-221.7 364.8,-212.3 388.7,-199.5 409.5,-184.4 427.4,-168.4 443.5,-153.0 459.2,-139.1 475.9,-127.2 494.9,-117.4 517.2,-108.9 542.7,-100.9 570.4,-92.0 598.8,-81.4 625.7,-68.2 648.6,-52.1 665.5,-33.5 675.0,-12.9 676.3,8.6 669.9,30.0" fill="none" stroke="#32584f" stroke-width=".55" opacity=".5"/><polyline points="677.2,30.0 663.0,50.7 645.3,69.7 626.6,87.1 608.7,103.3 592.9,118.9 579.6,134.7 568.4,151.2 558.1,168.6 547.4,186.7 534.7,204.7 518.7,221.7 498.9,236.7 475.4,248.7 448.7,257.2 420.0,261.9 390.6,263.5 361.4,262.7 333.3,260.7 306.3,258.9 280.0,258.3 253.7,259.4 226.4,262.2 197.3,266.2 166.2,270.2 133.4,272.8 99.7,272.7 66.9,268.5 36.7,259.7 11.0,246.1 -8.9,228.2 -22.2,207.1 -29.2,184.1 -30.9,160.7 -29.2,138.1 -26.3,117.0 -24.3,97.8 -25.1,80.2 -29.6,63.6 -37.8,47.2 -48.8,30.0 -60.8,11.6 -71.7,-8.2 -79.4,-29.2 -81.8,-50.6 -77.9,-71.7 -67.3,-91.4 -50.6,-109.0 -29.2,-124.1 -4.7,-136.8 21.3,-147.5 47.2,-157.0 72.2,-166.2 96.1,-175.9 119.1,-186.6 142.2,-198.2 166.2,-210.2 191.9,-221.6 219.7,-231.1 249.3,-237.5 280.0,-239.7 310.6,-237.1 340.0,-229.7 366.8,-218.1 390.6,-203.5 411.2,-187.3 429.3,-171.1 446.2,-156.1 463.4,-143.2 482.5,-132.6 504.5,-124.0 529.8,-116.4 558.1,-108.6 588.1,-99.5 617.6,-88.0 644.4,-73.5 666.1,-56.1 680.8,-36.0 687.5,-14.3 686.0,8.1 677.2,30.0" fill="none" stroke="#32584f" stroke-width=".55" opacity=".5"/><polyline points="965.0,20.0 972.4,29.4 975.8,39.2 974.4,49.0 967.5,58.2 955.5,66.6 939.0,73.6 919.5,79.2 898.5,83.5 877.6,86.7 858.0,89.5 840.6,92.4 825.3,95.9 811.9,100.4 799.5,106.0 787.1,112.5 773.5,119.5 758.1,126.5 740.5,132.6 721.0,137.2 700.0,139.9 678.5,140.3 657.3,138.5 637.4,134.8 619.0,129.7 602.3,123.8 587.0,117.6 572.4,111.6 557.9,106.1 542.8,101.0 527.0,96.1 510.5,91.2 494.0,85.9 478.5,79.7 465.2,72.6 455.1,64.6 449.2,55.9 447.8,46.6 450.6,37.4 456.7,28.4 465.0,20.0 473.9,12.2 482.0,4.8 488.2,-2.4 492.0,-9.7 493.5,-17.6 493.5,-26.3 493.2,-35.8 494.0,-45.9 497.4,-56.1 504.5,-66.0 515.8,-74.9 531.4,-82.1 550.7,-87.2 572.6,-90.1 595.7,-90.8 619.0,-89.7 641.4,-87.4 662.3,-84.7 681.7,-82.1 700.0,-80.1 717.7,-79.0 735.6,-78.8 754.1,-79.1 773.5,-79.5 793.7,-79.5 814.0,-78.4 833.7,-76.0 851.8,-71.9 867.6,-66.3 880.5,-59.4 890.7,-51.7 898.5,-43.5 904.8,-35.2 910.7,-27.2 917.1,-19.6 924.8,-12.1 934.0,-4.7 944.4,3.0 955.2,11.2 965.0,20.0" fill="none" stroke="#477367" stroke-width=".9" opacity=".5"/><polyline points="984.6,20.0 991.6,30.4 993.8,41.1 990.2,51.5 980.8,61.3 966.1,69.9 947.3,77.0 926.1,82.7 904.1,87.1 882.9,90.7 863.7,94.1 846.9,97.8 832.3,102.4 819.3,108.1 806.8,114.9 793.8,122.4 779.1,130.2 762.3,137.4 743.2,143.4 722.2,147.5 700.0,149.4 677.6,148.8 655.8,146.1 635.4,141.7 616.6,136.1 599.2,130.1 582.8,124.1 566.6,118.5 550.1,113.4 532.8,108.6 514.7,103.9 496.3,98.7 478.5,92.8 462.6,85.8 449.7,77.7 441.0,68.6 436.9,58.7 437.5,48.5 442.2,38.5 449.8,28.9 458.6,20.0 467.3,11.7 474.2,3.8 478.7,-4.0 480.5,-12.3 480.1,-21.2 478.6,-31.0 477.6,-41.7 478.5,-52.8 483.0,-63.9 491.7,-74.2 505.2,-83.2 523.1,-90.2 544.5,-94.8 568.0,-97.2 592.5,-97.4 616.6,-96.1 639.5,-94.0 660.9,-91.6 680.9,-89.7 700.0,-88.6 718.9,-88.4 738.1,-88.9 758.2,-89.7 779.1,-90.2 800.5,-89.8 821.6,-88.0 841.4,-84.4 859.2,-79.2 874.4,-72.4 886.6,-64.4 896.3,-55.9 904.1,-47.1 911.1,-38.5 918.4,-30.4 926.9,-22.5 937.1,-14.9 949.0,-7.0 961.7,1.2 974.1,10.2 984.6,20.0" fill="none" stroke="#32584f" stroke-width=".55" opacity=".5"/><polyline points="1004.5,20.0 1010.5,31.3 1010.7,42.8 1004.6,53.9 992.5,64.1 975.2,72.9 954.5,80.1 932.0,85.9 909.5,90.6 888.6,94.7 870.0,98.9 854.0,103.6 840.2,109.5 827.4,116.4 814.7,124.4 800.8,132.8 784.8,141.1 766.4,148.3 745.7,153.9 723.3,157.2 700.0,158.1 676.8,156.6 654.6,153.1 633.7,148.1 614.3,142.4 595.9,136.5 578.1,131.0 560.1,125.9 541.3,121.3 521.7,116.8 501.5,112.1 481.5,106.5 462.9,99.9 447.1,91.9 435.2,82.6 428.0,72.2 426.0,61.3 428.7,50.2 435.1,39.5 443.6,29.4 452.5,20.0 460.2,11.2 465.5,2.8 467.9,-5.8 467.5,-15.0 465.3,-25.1 462.6,-36.1 461.3,-47.8 462.9,-59.9 468.8,-71.6 479.7,-82.2 495.5,-91.0 515.7,-97.6 539.0,-101.8 564.1,-103.7 589.5,-103.7 614.3,-102.4 637.6,-100.6 659.4,-98.9 680.0,-98.0 700.0,-97.9 720.1,-98.6 740.9,-99.8 762.5,-100.8 784.8,-101.1 807.2,-100.0 828.7,-97.1 848.5,-92.4 865.8,-85.8 880.2,-77.8 891.8,-69.0 901.3,-59.7 909.5,-50.6 917.7,-41.9 927.0,-33.6 938.0,-25.7 951.0,-17.8 965.5,-9.6 980.3,-0.6 993.9,9.3 1004.5,20.0" fill="none" stroke="#32584f" stroke-width=".55" opacity=".5"/><polyline points="1024.1,20.0 1028.5,32.3 1026.4,44.5 1017.5,56.1 1002.6,66.6 983.1,75.6 960.7,83.0 937.5,89.0 915.1,94.1 894.9,98.9 877.3,104.1 862.3,110.1 849.0,117.2 836.3,125.5 823.0,134.4 807.9,143.5 790.4,152.0 770.4,158.9 748.0,163.8 724.3,166.2 700.0,166.0 676.2,163.6 653.4,159.4 632.0,154.2 611.8,148.6 592.3,143.2 572.8,138.3 552.7,133.9 531.6,129.9 509.7,125.6 487.6,120.7 466.4,114.6 447.5,107.0 432.3,97.8 421.8,87.2 416.6,75.6 416.7,63.6 421.3,51.7 428.9,40.4 437.8,29.8 446.1,20.0 452.3,10.8 455.5,1.6 455.5,-7.8 452.9,-18.1 449.1,-29.3 445.7,-41.4 444.7,-54.2 447.5,-67.0 455.4,-79.0 468.6,-89.7 486.9,-98.3 509.3,-104.5 534.3,-108.2 560.6,-109.7 586.8,-109.6 611.8,-108.6 635.4,-107.5 657.6,-106.8 678.9,-107.0 700.0,-108.0 721.5,-109.6 743.8,-111.2 767.0,-112.2 790.4,-112.0 813.5,-109.9 835.2,-105.8 854.7,-99.7 871.4,-91.8 885.1,-82.7 896.3,-73.1 906.0,-63.4 915.1,-54.1 925.1,-45.4 936.8,-37.2 950.6,-29.2 966.4,-21.0 983.3,-12.2 999.8,-2.5 1014.0,8.3 1024.1,20.0" fill="none" stroke="#477367" stroke-width=".9" opacity=".5"/><polyline points="1043.0,20.0 1045.3,33.1 1040.5,46.1 1028.8,58.2 1011.3,68.9 989.9,78.0 966.5,85.6 943.1,92.0 921.3,97.7 902.1,103.4 885.7,109.8 871.6,117.1 858.7,125.6 845.8,135.1 831.6,144.9 815.1,154.3 795.9,162.6 774.0,169.0 750.1,173.0 725.1,174.3 700.0,173.1 675.6,169.9 652.4,165.4 630.4,160.2 609.2,155.1 588.3,150.4 566.8,146.4 544.4,142.7 521.0,139.1 497.0,134.9 473.3,129.6 451.4,122.7 432.6,113.9 418.5,103.4 409.8,91.5 406.8,78.7 408.9,65.7 415.1,53.1 423.4,41.2 432.0,30.2 439.0,20.0 443.2,10.2 443.9,0.4 441.4,-10.0 436.9,-21.3 431.8,-33.7 428.3,-46.9 428.1,-60.6 432.6,-73.9 442.8,-86.2 458.6,-96.7 479.3,-104.9 503.7,-110.6 530.3,-113.9 557.4,-115.3 584.0,-115.4 609.2,-115.1 633.0,-114.9 655.6,-115.4 677.7,-116.8 700.0,-118.9 723.0,-121.2 746.9,-123.0 771.4,-123.7 795.9,-122.6 819.4,-119.4 841.0,-113.8 860.0,-106.2 876.0,-97.1 889.2,-87.1 900.4,-76.9 910.6,-67.0 921.3,-57.7 933.5,-49.2 947.9,-41.1 964.8,-33.0 983.4,-24.5 1002.4,-15.1 1019.9,-4.5 1034.1,7.3 1043.0,20.0" fill="none" stroke="#32584f" stroke-width=".55" opacity=".5"/><polyline points="1060.8,20.0 1060.5,34.0 1052.8,47.5 1038.3,60.0 1018.7,70.9 995.8,80.3 972.0,88.2 949.0,95.1 928.3,101.6 910.5,108.5 895.4,116.1 882.1,124.9 869.3,134.7 855.8,145.1 840.3,155.5 822.1,165.0 800.9,172.8 777.3,178.4 751.9,181.2 725.8,181.5 700.0,179.4 675.1,175.7 651.4,171.1 628.6,166.3 606.2,162.0 583.6,158.3 560.0,155.2 535.3,152.3 509.5,149.0 483.6,144.7 458.8,138.7 436.7,130.7 418.7,120.6 406.0,108.6 399.4,95.4 398.5,81.4 402.5,67.6 409.7,54.3 418.1,42.0 425.7,30.6 430.8,20.0 432.5,9.6 430.5,-1.0 425.7,-12.4 419.5,-24.8 413.8,-38.3 410.6,-52.5 411.9,-66.9 418.7,-80.6 431.5,-92.9 449.9,-103.1 472.9,-110.8 499.0,-116.1 526.6,-119.2 554.3,-120.7 581.0,-121.4 606.2,-122.0 630.2,-123.1 653.3,-124.9 676.4,-127.6 700.0,-130.6 724.5,-133.4 749.9,-135.1 775.7,-135.1 800.9,-132.8 824.7,-128.1 846.0,-121.0 864.4,-112.0 879.8,-101.8 892.8,-91.1 904.3,-80.5 915.7,-70.7 928.3,-61.6 943.2,-53.3 960.7,-45.4 980.6,-37.2 1001.6,-28.2 1022.3,-18.1 1040.3,-6.5 1053.7,6.3 1060.8,20.0" fill="none" stroke="#32584f" stroke-width=".55" opacity=".5"/><polyline points="1077.1,20.0 1074.0,34.7 1063.3,48.8 1046.3,61.6 1024.9,72.8 1001.4,82.4 977.8,90.8 955.8,98.4 936.6,106.0 920.3,114.1 906.3,123.2 893.6,133.3 880.6,144.3 866.0,155.5 848.9,166.1 828.7,175.3 805.5,182.4 780.1,186.9 753.4,188.6 726.4,187.8 700.0,185.0 674.6,181.1 650.3,176.8 626.6,172.8 602.8,169.5 578.2,167.0 552.4,164.9 525.3,162.6 497.4,159.4 470.0,154.6 444.6,147.7 422.7,138.4 405.9,126.8 395.1,113.4 390.6,98.8 391.7,83.8 397.1,69.2 404.7,55.4 412.5,42.8 418.4,31.1 421.1,20.0 420.0,9.0 415.4,-2.5 408.4,-15.0 401.0,-28.6 395.3,-43.1 393.3,-58.1 396.5,-73.0 405.9,-86.8 421.5,-98.9 442.5,-108.8 467.5,-116.1 495.0,-121.1 523.2,-124.2 551.0,-126.2 577.6,-127.7 602.8,-129.5 627.0,-132.1 650.8,-135.4 674.9,-139.2 700.0,-143.0 726.1,-145.9 752.9,-147.1 779.8,-146.1 805.5,-142.4 829.3,-136.1 850.2,-127.4 868.0,-117.1 883.0,-106.0 896.1,-94.8 908.4,-84.2 921.5,-74.6 936.6,-66.0 954.5,-58.0 975.1,-50.1 997.8,-41.7 1021.0,-32.1 1042.6,-21.1 1060.4,-8.5 1072.4,5.3 1077.1,20.0" fill="none" stroke="#477367" stroke-width=".9" opacity=".5"/><polyline points="1091.7,20.0 1085.5,35.4 1072.1,49.9 1053.0,63.0 1030.5,74.5 1006.9,84.5 984.2,93.5 963.8,102.0 946.3,110.8 931.5,120.3 918.5,130.9 905.9,142.3 892.2,154.2 876.2,165.9 857.1,176.4 834.7,185.0 809.6,191.1 782.5,194.4 754.6,195.0 726.9,193.3 700.0,190.2 674.2,186.5 649.1,182.9 624.3,180.0 598.8,177.9 572.1,176.6 544.0,175.4 514.6,173.5 484.9,170.2 456.4,164.7 430.8,156.6 409.8,145.8 394.6,132.6 385.9,117.7 383.4,101.8 386.2,85.9 392.3,70.7 399.7,56.6 406.1,43.6 409.8,31.6 409.7,20.0 405.6,8.2 398.5,-4.2 389.9,-17.8 381.9,-32.4 376.8,-47.9 376.5,-63.6 382.3,-78.8 394.6,-92.6 412.9,-104.4 436.3,-113.8 463.0,-120.8 491.3,-125.7 519.8,-129.1 547.5,-131.9 573.7,-134.6 598.8,-137.9 623.3,-142.0 647.9,-146.8 673.4,-151.6 700.0,-155.8 727.7,-158.5 755.8,-158.9 783.5,-156.5 809.6,-151.1 833.1,-143.1 853.6,-132.9 870.9,-121.5 885.8,-109.7 899.3,-98.4 913.1,-88.1 928.4,-78.9 946.3,-70.8 967.4,-63.1 991.1,-55.3 1016.3,-46.5 1041.0,-36.2 1062.9,-24.2 1079.7,-10.5 1089.7,4.4 1091.7,20.0" fill="none" stroke="#32584f" stroke-width=".55" opacity=".5"/><polyline points="1104.2,20.0 1095.1,36.0 1079.3,50.9 1058.8,64.3 1035.9,76.1 1013.0,86.7 991.8,96.4 973.3,106.1 957.6,116.2 944.3,127.3 931.8,139.2 918.9,151.8 904.0,164.4 886.1,176.1 864.7,186.2 840.1,193.9 813.0,198.9 784.5,200.9 755.6,200.5 727.3,198.3 700.0,195.2 673.7,192.0 647.8,189.5 621.6,188.0 594.3,187.3 565.3,187.2 534.8,186.7 503.4,185.0 472.3,181.2 443.2,174.6 417.9,165.0 398.2,152.5 384.9,137.7 378.2,121.4 377.6,104.4 381.5,87.8 387.8,72.2 394.2,57.7 398.5,44.5 399.4,32.2 396.2,20.0 389.3,7.4 380.0,-6.1 370.4,-20.7 362.6,-36.4 358.9,-52.6 360.9,-68.8 369.6,-84.1 384.9,-97.7 405.9,-109.1 431.2,-118.2 459.1,-125.0 487.8,-130.1 516.2,-134.2 543.3,-138.1 569.2,-142.3 594.3,-147.3 619.2,-153.0 644.9,-159.0 671.7,-164.6 700.0,-168.8 729.2,-170.9 758.5,-170.0 786.9,-166.0 813.0,-158.9 836.3,-149.1 856.2,-137.6 873.3,-125.4 888.4,-113.3 903.0,-102.2 918.6,-92.4 936.5,-83.9 957.6,-76.2 981.9,-68.8 1008.5,-60.8 1035.6,-51.5 1061.2,-40.3 1082.6,-27.2 1097.8,-12.4 1105.2,3.6 1104.2,20.0" fill="none" stroke="#32584f" stroke-width=".55" opacity=".5"/><polyline points="1114.7,20.0 1103.0,36.5 1085.3,51.8 1064.1,65.5 1041.6,77.8 1020.1,89.0 1000.8,99.8 984.4,110.7 970.6,122.3 958.3,134.8 946.0,148.0 932.2,161.5 915.6,174.4 895.4,186.0 871.7,195.3 844.8,201.9 815.8,205.6 786.0,206.5 756.4,205.3 727.7,202.9 700.0,200.2 673.1,198.0 646.2,196.9 618.4,196.9 589.0,197.7 557.8,198.6 525.1,198.6 491.9,196.7 459.8,192.1 430.6,184.1 406.3,172.9 388.1,158.6 376.8,142.2 372.1,124.6 373.0,106.7 377.3,89.6 383.0,73.6 387.6,59.0 389.3,45.6 387.1,32.8 380.7,20.0 371.2,6.5 360.4,-8.0 350.3,-23.7 343.5,-40.3 341.9,-57.2 346.8,-73.7 358.6,-88.9 376.8,-102.2 400.2,-113.3 427.0,-122.1 455.5,-129.0 484.2,-134.6 511.9,-139.7 538.4,-145.0 563.9,-151.0 589.0,-157.7 614.7,-165.0 641.6,-172.0 670.1,-177.9 700.0,-181.8 730.7,-182.8 761.0,-180.4 789.7,-174.5 815.8,-165.6 838.7,-154.3 858.3,-141.7 875.4,-129.0 891.2,-117.0 907.3,-106.3 925.3,-97.2 946.2,-89.4 970.6,-82.3 998.0,-75.0 1026.9,-66.7 1055.5,-56.6 1081.1,-44.4 1101.3,-30.1 1114.3,-14.2 1118.8,2.8 1114.7,20.0" fill="none" stroke="#477367" stroke-width=".9" opacity=".5"/><polyline points="1123.3,20.0 1109.3,37.0 1090.5,52.6 1069.4,66.7 1048.1,79.5 1028.5,91.6 1011.6,103.6 997.4,115.9 985.2,129.0 973.5,142.9 960.8,157.2 945.5,171.3 926.7,184.2 904.0,195.2 877.7,203.5 848.6,208.8 818.1,211.2 787.2,211.2 757.1,209.6 728.0,207.4 700.0,205.6 672.4,204.8 644.2,205.3 614.7,207.0 583.2,209.2 549.7,210.9 515.0,211.1 480.4,208.6 447.8,202.7 419.1,193.1 396.0,180.0 379.6,164.0 370.3,146.1 367.3,127.3 369.0,108.8 373.1,91.3 377.4,75.2 379.6,60.5 378.2,46.8 372.6,33.6 363.3,20.0 351.7,5.6 339.9,-10.0 330.4,-26.7 325.3,-44.1 326.4,-61.5 334.4,-78.0 349.4,-93.1 370.3,-106.1 395.6,-116.8 423.4,-125.6 451.9,-132.9 480.0,-139.4 506.9,-145.9 532.6,-152.9 557.8,-160.7 583.2,-169.2 609.8,-177.7 638.2,-185.5 668.4,-191.3 700.0,-194.4 732.0,-194.0 763.1,-189.8 792.1,-181.9 818.1,-171.2 840.6,-158.6 860.1,-145.3 877.5,-132.5 894.5,-120.9 912.6,-111.0 933.4,-102.8 957.5,-95.8 985.2,-89.0 1015.3,-81.7 1046.1,-72.8 1075.3,-61.8 1100.2,-48.4 1118.6,-32.9 1128.8,-15.7 1130.2,2.2 1123.3,20.0" fill="none" stroke="#32584f" stroke-width=".55" opacity=".5"/><polyline points="1130.1,20.0 1114.6,37.4 1095.5,53.3 1075.2,67.9 1055.9,81.5 1038.7,94.6 1024.3,107.9 1012.2,121.7 1001.1,136.3 989.5,151.5 975.7,166.6 958.4,180.9 937.0,193.5 911.5,203.6 882.7,210.7 851.6,214.7 819.7,215.9 788.2,215.3 757.7,213.7 728.4,212.2 700.0,211.6 671.5,212.5 642.0,214.9 610.5,218.2 576.8,221.6 541.3,223.8 504.8,223.7 469.3,220.2 436.6,212.8 408.7,201.4 387.2,186.3 372.8,168.6 365.2,149.3 363.4,129.7 365.2,110.7 368.4,93.0 370.5,76.9 369.7,62.2 364.9,48.2 356.0,34.4 344.1,20.0 331.0,4.6 319.2,-12.1 310.9,-29.7 308.3,-47.7 312.6,-65.3 324.0,-81.9 342.0,-96.7 365.2,-109.3 391.8,-120.0 419.9,-129.0 448.0,-136.9 475.0,-144.7 500.9,-152.8 525.8,-161.8 550.8,-171.5 576.8,-181.6 604.7,-191.2 634.7,-199.2 666.8,-204.5 700.0,-206.4 733.2,-204.2 764.9,-198.0 794.0,-188.2 819.7,-175.9 842.0,-162.4 861.7,-148.8 880.0,-136.2 898.6,-125.4 919.2,-116.5 943.0,-109.2 970.5,-102.9 1001.1,-96.3 1033.5,-88.7 1065.5,-79.1 1094.6,-66.9 1118.0,-52.2 1134.0,-35.4 1141.2,-17.2 1139.6,1.6 1130.1,20.0" fill="none" stroke="#32584f" stroke-width=".55" opacity=".5"/><polyline points="1405.6,245.0 1413.2,257.9 1416.9,271.2 1415.4,284.5 1408.3,297.2 1395.7,308.5 1378.6,318.1 1358.3,325.7 1336.4,331.5 1314.7,336.0 1294.3,339.8 1276.2,343.7 1260.3,348.5 1246.4,354.6 1233.5,362.2 1220.6,371.1 1206.4,380.7 1190.4,390.2 1172.2,398.5 1151.8,404.9 1130.0,408.5 1107.6,409.1 1085.6,406.6 1064.8,401.6 1045.8,394.6 1028.4,386.5 1012.5,378.1 997.3,369.9 982.2,362.4 966.5,355.4 950.1,348.8 932.9,342.1 915.8,334.8 899.6,326.4 885.8,316.8 875.3,305.9 869.2,293.9 867.7,281.3 870.6,268.7 877.0,256.5 885.6,245.0 894.9,234.3 903.3,224.3 909.7,214.5 913.7,204.5 915.3,193.7 915.3,181.9 914.9,169.0 915.8,155.2 919.3,141.2 926.7,127.7 938.5,115.6 954.7,105.8 974.7,98.8 997.5,94.9 1021.6,94.0 1045.8,95.4 1069.0,98.5 1090.8,102.2 1111.0,105.8 1130.0,108.5 1148.4,110.0 1167.0,110.3 1186.2,109.9 1206.4,109.3 1227.4,109.3 1248.6,110.8 1269.0,114.1 1287.9,119.7 1304.3,127.3 1317.7,136.7 1328.3,147.3 1336.4,158.5 1343.0,169.7 1349.1,180.6 1355.8,191.1 1363.7,201.2 1373.3,211.3 1384.2,221.8 1395.4,232.9 1405.6,245.0" fill="none" stroke="#477367" stroke-width=".9" opacity=".5"/><polyline points="1425.5,245.0 1432.7,258.9 1434.9,273.1 1431.2,287.1 1421.4,300.2 1406.2,311.6 1386.7,321.2 1364.7,328.7 1341.8,334.6 1319.9,339.5 1299.9,344.0 1282.4,348.9 1267.3,355.1 1253.8,362.7 1240.9,371.8 1227.3,381.9 1212.1,392.2 1194.7,401.9 1174.8,409.9 1153.0,415.4 1130.0,417.9 1106.7,417.1 1084.2,413.5 1063.0,407.6 1043.4,400.2 1025.4,392.1 1008.3,384.1 991.5,376.6 974.4,369.8 956.4,363.4 937.6,357.0 918.6,350.2 900.1,342.3 883.6,332.9 870.2,322.1 861.1,309.9 856.9,296.7 857.5,283.1 862.4,269.7 870.2,256.9 879.5,245.0 888.4,233.9 895.6,223.4 900.3,212.9 902.2,201.9 901.7,189.9 900.2,176.8 899.1,162.6 900.1,147.7 904.7,132.9 913.8,119.1 927.8,107.1 946.4,97.8 968.5,91.6 993.0,88.4 1018.4,88.1 1043.4,89.8 1067.2,92.7 1089.4,95.8 1110.2,98.4 1130.0,99.9 1149.6,100.1 1169.6,99.4 1190.4,98.4 1212.1,97.8 1234.3,98.3 1256.2,100.8 1276.8,105.5 1295.3,112.5 1311.0,121.6 1323.7,132.2 1333.7,143.7 1341.8,155.4 1349.1,166.8 1356.7,177.7 1365.5,188.2 1376.2,198.4 1388.4,208.9 1401.7,219.9 1414.6,232.0 1425.5,245.0" fill="none" stroke="#32584f" stroke-width=".55" opacity=".5"/><polyline points="1445.5,245.0 1451.7,259.9 1452.0,275.0 1445.7,289.5 1433.1,302.8 1415.2,314.4 1393.7,323.9 1370.4,331.5 1347.1,337.7 1325.4,343.0 1306.2,348.5 1289.6,354.8 1275.2,362.4 1262.1,371.6 1248.9,382.0 1234.4,393.1 1217.9,403.9 1198.8,413.4 1177.4,420.7 1154.1,425.1 1130.0,426.3 1106.0,424.3 1082.9,419.7 1061.3,413.1 1041.1,405.6 1022.2,397.9 1003.7,390.6 985.0,384.0 965.6,377.9 945.2,372.1 924.3,365.8 903.6,358.6 884.3,349.8 867.9,339.3 855.6,327.1 848.2,313.6 846.1,299.2 848.9,284.6 855.5,270.5 864.3,257.3 873.5,245.0 881.5,233.5 887.0,222.4 889.5,211.1 889.1,199.0 886.8,185.8 884.0,171.4 882.6,156.0 884.3,140.2 890.5,124.8 901.7,110.9 918.1,99.3 939.0,90.6 963.2,85.1 989.2,82.6 1015.5,82.7 1041.1,84.4 1065.3,86.7 1087.9,88.9 1109.3,90.2 1130.0,90.3 1150.9,89.3 1172.4,87.8 1194.8,86.4 1217.9,86.1 1241.1,87.5 1263.4,91.3 1283.9,97.5 1301.8,106.1 1316.7,116.6 1328.8,128.2 1338.6,140.4 1347.1,152.3 1355.6,163.8 1365.2,174.6 1376.7,185.0 1390.1,195.4 1405.1,206.2 1420.4,218.0 1434.5,230.9 1445.5,245.0" fill="none" stroke="#32584f" stroke-width=".55" opacity=".5"/><polyline points="1465.3,245.0 1469.9,260.8 1467.7,276.7 1458.5,291.7 1443.1,305.2 1422.9,316.8 1399.8,326.4 1375.7,334.1 1352.6,340.7 1331.6,346.9 1313.4,353.6 1297.9,361.4 1284.1,370.6 1271.0,381.3 1257.3,392.9 1241.7,404.6 1223.6,415.5 1202.8,424.5 1179.7,430.8 1155.1,433.9 1130.0,433.7 1105.3,430.5 1081.8,425.1 1059.7,418.4 1038.8,411.2 1018.6,404.2 998.4,397.9 977.6,392.2 955.8,386.9 933.1,381.4 910.3,375.1 888.4,367.2 868.8,357.3 853.0,345.5 842.1,331.8 836.8,316.9 836.9,301.4 841.7,286.0 849.5,271.3 858.7,257.6 867.3,245.0 873.7,233.1 877.0,221.3 877.0,209.0 874.4,195.8 870.4,181.4 866.9,165.7 865.8,149.2 868.8,132.7 876.9,117.0 890.6,103.3 909.5,92.2 932.7,84.2 958.6,79.4 985.8,77.4 1012.8,77.6 1038.8,78.8 1063.2,80.3 1086.2,81.1 1108.2,81.0 1130.0,79.7 1152.3,77.6 1175.4,75.5 1199.3,74.2 1223.6,74.5 1247.4,77.1 1269.9,82.5 1290.1,90.4 1307.3,100.5 1321.5,112.3 1333.1,124.8 1343.1,137.3 1352.6,149.3 1362.9,160.5 1374.9,171.1 1389.3,181.4 1405.7,192.0 1423.1,203.3 1440.2,215.9 1454.9,229.9 1465.3,245.0" fill="none" stroke="#477367" stroke-width=".9" opacity=".5"/><polyline points="1484.3,245.0 1486.7,261.7 1481.7,278.2 1469.6,293.6 1451.6,307.3 1429.5,318.9 1405.3,328.6 1381.1,336.7 1358.6,344.0 1338.8,351.3 1321.9,359.4 1307.3,368.7 1294.0,379.6 1280.7,391.6 1266.0,404.1 1248.9,416.1 1229.0,426.7 1206.4,434.8 1181.8,439.9 1155.9,441.5 1130.0,440.0 1104.8,436.0 1080.8,430.2 1058.1,423.6 1036.2,417.1 1014.6,411.1 992.4,406.0 969.3,401.4 945.1,396.7 920.2,391.4 895.8,384.6 873.1,375.8 853.8,364.6 839.2,351.3 830.2,336.1 827.1,319.8 829.3,303.2 835.6,287.1 844.2,272.0 853.1,258.0 860.3,245.0 864.7,232.6 865.4,220.0 862.9,206.8 858.2,192.3 853.0,176.6 849.3,159.7 849.1,142.4 853.8,125.4 864.3,109.7 880.6,96.3 902.0,85.9 927.2,78.6 954.6,74.4 982.7,72.6 1010.1,72.5 1036.2,72.9 1060.8,73.1 1084.2,72.4 1107.0,70.7 1130.0,68.0 1153.7,65.1 1178.4,62.8 1203.7,61.9 1229.0,63.3 1253.4,67.5 1275.7,74.5 1295.3,84.2 1311.8,95.8 1325.5,108.5 1337.0,121.6 1347.6,134.2 1358.6,146.0 1371.2,156.9 1386.2,167.2 1403.6,177.4 1422.8,188.3 1442.4,200.3 1460.5,213.8 1475.2,228.8 1484.3,245.0" fill="none" stroke="#32584f" stroke-width=".55" opacity=".5"/><polyline points="1502.3,245.0 1502.0,262.6 1494.0,279.6 1479.1,295.3 1458.8,309.1 1435.2,320.9 1410.6,330.8 1386.9,339.5 1365.6,347.7 1347.2,356.3 1331.6,365.9 1317.8,377.0 1304.7,389.3 1290.8,402.4 1274.8,415.5 1255.9,427.4 1234.1,437.3 1209.7,444.2 1183.5,447.8 1156.6,448.1 1130.0,445.5 1104.3,440.9 1079.8,435.1 1056.3,429.1 1033.3,423.6 1009.9,419.0 985.6,415.1 960.0,411.4 933.5,407.3 906.8,401.8 881.2,394.3 858.3,384.2 839.7,371.5 826.7,356.5 819.8,339.8 818.9,322.3 823.0,304.8 830.4,288.2 839.1,272.6 847.0,258.4 852.3,245.0 854.0,232.0 852.0,218.6 847.0,204.2 840.6,188.6 834.7,171.6 831.5,153.7 832.7,135.7 839.7,118.5 852.9,103.0 871.9,90.2 895.7,80.4 922.6,73.8 951.1,69.9 979.7,68.0 1007.2,67.1 1033.3,66.4 1058.0,65.0 1081.9,62.7 1105.6,59.3 1130.0,55.5 1155.3,52.1 1181.5,49.9 1208.1,49.9 1234.1,52.7 1258.6,58.7 1280.7,67.6 1299.7,78.9 1315.6,91.8 1328.9,105.3 1340.8,118.5 1352.6,130.9 1365.6,142.3 1380.9,152.7 1399.0,162.8 1419.5,173.1 1441.2,184.3 1462.5,197.1 1481.1,211.6 1494.9,227.8 1502.3,245.0" fill="none" stroke="#32584f" stroke-width=".55" opacity=".5"/><polyline points="1518.6,245.0 1515.4,263.3 1504.4,280.8 1486.9,296.7 1464.8,310.7 1440.5,322.6 1416.2,333.0 1393.6,342.5 1373.8,351.9 1357.0,362.0 1342.6,373.3 1329.5,385.9 1316.1,399.6 1301.1,413.5 1283.4,426.7 1262.6,438.2 1238.8,447.0 1212.6,452.6 1185.0,454.7 1157.2,453.7 1130.0,450.3 1103.9,445.4 1078.8,440.1 1054.4,435.1 1029.9,431.0 1004.5,427.8 977.9,425.2 949.9,422.3 921.3,418.4 893.0,412.5 866.8,403.9 844.2,392.3 826.9,377.9 815.8,361.2 811.2,343.0 812.3,324.4 817.8,306.2 825.7,289.1 833.7,273.3 839.8,258.8 842.6,245.0 841.5,231.3 836.7,217.0 829.6,201.5 821.9,184.6 816.0,166.5 813.9,147.8 817.3,129.3 826.9,112.1 843.0,97.0 864.6,84.8 890.4,75.7 918.7,69.5 947.9,65.6 976.5,63.2 1003.9,61.3 1029.9,59.0 1054.8,55.8 1079.3,51.7 1104.2,47.0 1130.0,42.3 1156.9,38.7 1184.6,37.1 1212.2,38.4 1238.8,43.0 1263.2,50.9 1284.8,61.6 1303.1,74.5 1318.6,88.3 1332.0,102.2 1344.8,115.4 1358.3,127.3 1373.8,138.1 1392.2,148.0 1413.5,157.8 1436.9,168.3 1460.7,180.1 1483.0,193.8 1501.4,209.5 1513.7,226.8 1518.6,245.0" fill="none" stroke="#477367" stroke-width=".9" opacity=".5"/><polyline points="1533.1,245.0 1526.8,264.0 1513.0,281.8 1493.4,297.9 1470.2,312.1 1445.9,324.4 1422.5,335.5 1401.5,346.0 1383.6,356.8 1368.3,368.5 1354.9,381.5 1341.9,395.6 1327.8,410.3 1311.4,424.6 1291.7,437.6 1268.7,448.2 1242.8,455.7 1214.9,459.7 1186.2,460.4 1157.7,458.4 1130.0,454.6 1103.4,450.0 1077.7,445.5 1052.1,442.0 1025.9,439.5 998.4,437.8 969.4,436.3 939.1,434.0 908.6,429.9 879.3,423.1 852.9,413.1 831.3,399.8 815.6,383.6 806.7,365.2 804.2,345.8 807.0,326.2 813.3,307.4 820.9,290.0 827.5,274.1 831.3,259.3 831.1,245.0 827.0,230.5 819.6,215.2 810.8,198.5 802.6,180.4 797.4,161.4 797.1,142.1 803.0,123.4 815.6,106.4 834.5,91.9 858.5,80.3 886.0,71.7 915.2,65.6 944.6,61.4 973.0,58.0 1000.0,54.6 1025.9,50.5 1051.1,45.5 1076.4,39.7 1102.6,33.7 1130.0,28.6 1158.5,25.3 1187.5,24.8 1216.0,27.7 1242.8,34.3 1267.0,44.2 1288.1,56.7 1305.9,70.8 1321.2,85.3 1335.2,99.2 1349.3,111.9 1365.1,123.2 1383.6,133.2 1405.2,142.7 1429.6,152.4 1455.5,163.2 1480.9,175.8 1503.5,190.6 1520.9,207.4 1531.1,225.8 1533.1,245.0" fill="none" stroke="#32584f" stroke-width=".55" opacity=".5"/><polyline points="1545.6,245.0 1536.3,264.5 1520.0,282.7 1498.9,299.0 1475.4,313.5 1451.8,326.3 1430.0,338.2 1411.0,350.0 1394.9,362.4 1381.2,375.8 1368.4,390.4 1355.1,405.7 1339.8,421.1 1321.4,435.4 1299.4,447.8 1274.1,457.2 1246.2,463.2 1216.9,465.7 1187.2,465.2 1158.1,462.5 1130.0,458.7 1102.9,454.8 1076.3,451.7 1049.4,449.9 1021.3,449.1 991.5,448.9 960.1,448.3 927.8,446.2 895.8,441.6 865.9,433.6 840.0,421.9 819.6,406.7 806.0,388.6 799.2,368.6 798.5,348.0 802.5,327.7 809.0,308.6 815.5,291.0 820.0,274.9 820.9,259.8 817.6,245.0 810.5,229.7 801.0,213.2 791.0,195.4 783.1,176.2 779.3,156.4 781.4,136.7 790.3,118.0 806.0,101.4 827.6,87.5 853.6,76.4 882.3,68.1 911.9,61.9 941.0,56.9 968.9,52.2 995.5,47.0 1021.3,40.9 1046.9,33.9 1073.3,26.6 1100.9,19.9 1130.0,14.7 1160.0,12.2 1190.2,13.2 1219.3,18.1 1246.2,26.8 1270.1,38.7 1290.6,52.7 1308.2,67.7 1323.7,82.4 1338.7,96.0 1354.8,107.9 1373.2,118.3 1394.9,127.6 1419.9,136.7 1447.2,146.4 1475.1,157.8 1501.4,171.4 1523.4,187.4 1539.1,205.5 1546.7,225.0 1545.6,245.0" fill="none" stroke="#32584f" stroke-width=".55" opacity=".5"/><polyline points="1556.0,245.0 1543.9,265.0 1525.8,283.4 1504.0,300.0 1480.9,314.9 1458.8,328.4 1439.0,341.5 1422.2,354.7 1408.0,368.8 1395.3,383.9 1382.7,399.9 1368.5,416.1 1351.5,431.8 1330.8,445.7 1306.3,457.0 1278.7,465.0 1249.0,469.4 1218.4,470.5 1187.9,469.1 1158.4,466.2 1130.0,462.9 1102.3,460.3 1074.7,459.0 1046.2,459.0 1016.0,460.0 983.9,461.1 950.3,461.1 916.2,458.8 883.2,453.1 853.3,443.5 828.3,429.9 809.6,412.7 798.0,392.8 793.2,371.5 794.0,349.9 798.6,329.1 804.4,309.8 809.1,292.2 810.9,276.0 808.5,260.5 802.0,245.0 792.3,228.7 781.1,211.1 770.8,192.2 763.8,172.1 762.2,151.6 767.2,131.7 779.3,113.3 798.0,97.2 822.0,83.8 849.6,73.2 878.9,64.8 908.3,58.0 936.8,51.8 964.0,45.4 990.2,38.2 1016.0,30.0 1042.4,21.3 1070.0,12.8 1099.3,5.6 1130.0,0.9 1161.5,-0.3 1192.6,2.6 1222.2,9.7 1249.0,20.6 1272.5,34.2 1292.6,49.4 1310.2,64.8 1326.4,79.3 1343.0,92.2 1361.4,103.2 1382.9,112.6 1408.0,121.2 1436.1,130.1 1465.9,140.1 1495.2,152.3 1521.5,167.1 1542.3,184.4 1555.6,203.7 1560.2,224.3 1556.0,245.0" fill="none" stroke="#477367" stroke-width=".9" opacity=".5"/><polyline points="1564.4,245.0 1550.1,265.3 1530.8,284.1 1509.1,301.0 1487.2,316.4 1467.2,330.9 1449.8,345.3 1435.2,360.1 1422.7,375.9 1410.7,392.5 1397.6,409.7 1382.0,426.6 1362.7,442.1 1339.4,455.2 1312.3,465.2 1282.5,471.6 1251.2,474.5 1219.5,474.4 1188.6,472.5 1158.8,469.9 1130.0,467.7 1101.6,466.7 1072.8,467.4 1042.5,469.4 1010.1,472.0 975.8,474.1 940.2,474.3 904.7,471.3 871.2,464.2 841.7,452.8 818.0,437.0 801.2,417.8 791.6,396.3 788.5,373.8 790.3,351.5 794.5,330.5 798.9,311.2 801.2,293.6 799.7,277.2 794.0,261.3 784.4,245.0 772.5,227.7 760.4,209.0 750.6,189.0 745.4,168.1 746.5,147.3 754.8,127.4 770.2,109.3 791.6,93.7 817.6,80.8 846.1,70.3 875.4,61.6 904.2,53.8 931.8,46.0 958.2,37.5 984.0,28.1 1010.1,18.0 1037.4,7.7 1066.5,-1.6 1097.6,-8.6 1130.0,-12.3 1162.8,-11.8 1194.8,-6.7 1224.5,2.7 1251.2,15.5 1274.3,30.6 1294.3,46.6 1312.2,62.0 1329.6,75.9 1348.2,87.8 1369.5,97.6 1394.3,106.1 1422.7,114.1 1453.6,123.0 1485.2,133.6 1515.2,146.8 1540.7,162.9 1559.6,181.5 1570.1,202.1 1571.6,223.6 1564.4,245.0" fill="none" stroke="#32584f" stroke-width=".55" opacity=".5"/><polyline points="1571.0,245.0 1555.2,265.7 1535.6,284.7 1514.8,302.1 1494.9,318.3 1477.4,333.9 1462.6,349.7 1450.2,366.2 1438.8,383.6 1426.9,401.7 1412.7,419.7 1395.0,436.7 1373.1,451.7 1346.9,463.7 1317.3,472.2 1285.5,476.9 1252.8,478.5 1220.4,477.7 1189.1,475.7 1159.2,473.9 1130.0,473.3 1100.8,474.4 1070.5,477.2 1038.2,481.2 1003.7,485.2 967.2,487.8 929.9,487.7 893.4,483.5 859.9,474.7 831.3,461.1 809.3,443.2 794.5,422.1 786.7,399.1 784.8,375.7 786.7,353.1 789.9,332.0 792.1,312.8 791.3,295.2 786.3,278.6 777.2,262.2 765.0,245.0 751.6,226.6 739.5,206.8 731.0,185.8 728.4,164.4 732.7,143.3 744.5,123.6 762.9,106.0 786.7,90.9 814.0,78.2 842.8,67.5 871.6,58.0 899.3,48.8 925.8,39.1 951.4,28.4 977.0,16.8 1003.7,4.8 1032.2,-6.6 1063.1,-16.1 1095.9,-22.5 1130.0,-24.7 1164.0,-22.1 1196.6,-14.7 1226.4,-3.1 1252.8,11.5 1275.7,27.7 1295.8,43.9 1314.6,58.9 1333.7,71.8 1354.8,82.4 1379.2,91.0 1407.4,98.6 1438.8,106.4 1472.0,115.5 1504.8,127.0 1534.6,141.5 1558.7,158.9 1575.0,179.0 1582.4,200.7 1580.7,223.1 1571.0,245.0" fill="none" stroke="#32584f" stroke-width=".55" opacity=".5"/><polyline points="1731.4,0.0 1737.0,14.6 1739.6,29.7 1738.5,44.8 1733.3,59.1 1724.2,72.0 1711.7,82.8 1696.8,91.5 1680.9,98.1 1665.0,103.1 1650.1,107.5 1636.8,111.9 1625.3,117.3 1615.1,124.2 1605.7,132.9 1596.2,142.9 1585.9,153.8 1574.2,164.6 1560.8,174.0 1545.9,181.2 1530.0,185.3 1513.6,185.9 1497.6,183.2 1482.4,177.4 1468.4,169.5 1455.8,160.4 1444.1,150.8 1433.0,141.6 1422.0,133.0 1410.6,125.1 1398.5,117.7 1386.0,110.1 1373.4,101.8 1361.7,92.3 1351.5,81.4 1343.9,69.0 1339.4,55.4 1338.3,41.2 1340.4,26.9 1345.1,13.0 1351.4,0.0 1358.2,-12.1 1364.3,-23.5 1369.0,-34.6 1371.9,-46.0 1373.1,-58.2 1373.1,-71.5 1372.8,-86.2 1373.4,-101.8 1376.0,-117.7 1381.4,-133.0 1390.0,-146.6 1401.9,-157.8 1416.5,-165.7 1433.1,-170.1 1450.8,-171.2 1468.4,-169.5 1485.4,-166.1 1501.4,-161.8 1516.1,-157.8 1530.0,-154.7 1543.5,-153.0 1557.0,-152.6 1571.1,-153.2 1585.9,-153.8 1601.2,-153.8 1616.6,-152.1 1631.6,-148.3 1645.4,-142.1 1657.3,-133.4 1667.2,-122.8 1674.9,-110.7 1680.9,-98.1 1685.7,-85.3 1690.1,-73.0 1695.0,-61.1 1700.8,-49.7 1707.8,-38.2 1715.8,-26.3 1723.9,-13.7 1731.4,-0.0" fill="none" stroke="#477367" stroke-width=".9" opacity=".5"/><polyline points="1749.7,0.0 1755.1,15.6 1756.7,31.7 1754.0,47.4 1746.7,62.1 1735.4,75.0 1720.9,85.8 1704.5,94.3 1687.5,100.9 1671.2,106.3 1656.3,111.4 1643.3,117.0 1632.1,123.9 1622.1,132.5 1612.5,142.7 1602.4,154.1 1591.1,165.8 1578.1,176.7 1563.3,185.7 1547.1,191.8 1530.0,194.6 1512.7,193.8 1495.9,189.7 1480.2,183.1 1465.6,174.7 1452.2,165.6 1439.5,156.6 1427.0,148.2 1414.3,140.4 1400.9,133.3 1387.0,126.1 1372.8,118.4 1359.1,109.5 1346.8,99.0 1336.8,86.8 1330.1,73.0 1326.9,58.2 1327.4,42.9 1331.0,27.8 1336.8,13.4 1343.7,0.0 1350.3,-12.5 1355.7,-24.3 1359.2,-36.2 1360.6,-48.5 1360.3,-62.0 1359.1,-76.8 1358.3,-92.8 1359.1,-109.5 1362.5,-126.2 1369.3,-141.7 1379.7,-155.2 1393.5,-165.7 1409.9,-172.7 1428.1,-176.3 1447.0,-176.7 1465.6,-174.7 1483.3,-171.4 1499.8,-167.9 1515.3,-165.1 1530.0,-163.4 1544.6,-163.1 1559.4,-163.9 1574.9,-165.0 1591.1,-165.8 1607.6,-165.1 1623.8,-162.4 1639.2,-157.1 1652.9,-149.2 1664.6,-139.0 1674.0,-127.0 1681.5,-114.1 1687.5,-100.9 1692.9,-88.0 1698.6,-75.7 1705.1,-64.0 1713.0,-52.4 1722.2,-40.7 1732.0,-28.2 1741.6,-14.7 1749.7,-0.0" fill="none" stroke="#32584f" stroke-width=".55" opacity=".5"/><polyline points="1768.3,0.0 1773.0,16.6 1773.2,33.5 1768.4,49.8 1758.9,64.7 1745.4,77.7 1729.1,88.3 1711.5,96.8 1694.0,103.7 1677.6,109.7 1663.1,115.8 1650.6,122.9 1639.7,131.4 1629.7,141.7 1619.8,153.3 1608.9,165.7 1596.4,177.8 1582.0,188.5 1565.8,196.7 1548.2,201.6 1530.0,202.8 1511.9,200.6 1494.4,195.4 1478.1,188.2 1462.9,179.8 1448.6,171.1 1434.6,163.0 1420.5,155.5 1405.8,148.8 1390.5,142.2 1374.7,135.2 1359.0,127.1 1344.5,117.3 1332.1,105.6 1322.7,91.9 1317.2,76.7 1315.6,60.6 1317.7,44.4 1322.7,28.6 1329.3,13.7 1336.3,0.0 1342.3,-12.9 1346.5,-25.3 1348.3,-38.0 1348.0,-51.5 1346.3,-66.2 1344.2,-82.4 1343.2,-99.6 1344.5,-117.3 1349.1,-134.5 1357.6,-150.1 1370.0,-163.1 1385.8,-172.8 1404.0,-178.9 1423.6,-181.7 1443.6,-181.6 1462.9,-179.8 1481.1,-177.1 1498.2,-174.7 1514.3,-173.3 1530.0,-173.2 1545.8,-174.2 1562.0,-175.9 1578.9,-177.4 1596.4,-177.8 1613.9,-176.2 1630.7,-172.0 1646.2,-165.1 1659.7,-155.4 1671.0,-143.7 1680.1,-130.7 1687.5,-117.1 1694.0,-103.7 1700.4,-90.9 1707.6,-78.8 1716.3,-67.2 1726.4,-55.6 1737.8,-43.4 1749.3,-30.2 1760.0,-15.8 1768.3,-0.0" fill="none" stroke="#32584f" stroke-width=".55" opacity=".5"/><polyline points="1786.8,0.0 1790.3,17.6 1788.6,35.2 1781.6,52.0 1769.8,67.0 1754.3,79.9 1736.6,90.6 1718.2,99.2 1700.5,106.5 1684.4,113.5 1670.5,120.9 1658.6,129.5 1648.1,139.8 1638.0,151.6 1627.5,164.6 1615.5,177.6 1601.7,189.8 1585.8,199.8 1568.1,206.8 1549.2,210.2 1530.0,210.0 1511.1,206.5 1493.1,200.5 1476.1,193.0 1460.1,185.0 1444.7,177.2 1429.2,170.1 1413.3,163.9 1396.6,158.0 1379.2,151.9 1361.7,144.8 1344.9,136.0 1329.9,125.0 1317.8,111.8 1309.5,96.6 1305.5,80.0 1305.5,62.7 1309.2,45.6 1315.2,29.3 1322.2,14.1 1328.8,0.0 1333.7,-13.3 1336.3,-26.4 1336.3,-40.0 1334.2,-54.7 1331.2,-70.8 1328.5,-88.3 1327.7,-106.7 1329.9,-125.0 1336.2,-142.4 1346.6,-157.7 1361.1,-170.1 1378.9,-179.0 1398.7,-184.3 1419.5,-186.5 1440.3,-186.4 1460.1,-185.0 1478.8,-183.3 1496.4,-182.4 1513.3,-182.6 1530.0,-184.0 1547.0,-186.3 1564.7,-188.7 1583.1,-190.1 1601.7,-189.8 1620.0,-186.8 1637.2,-180.9 1652.6,-172.1 1665.8,-160.8 1676.7,-147.7 1685.6,-133.8 1693.2,-119.9 1700.5,-106.5 1708.3,-94.0 1717.6,-82.2 1728.6,-70.8 1741.1,-59.0 1754.5,-46.4 1767.6,-32.4 1778.8,-16.8 1786.8,-0.0" fill="none" stroke="#477367" stroke-width=".9" opacity=".5"/><polyline points="1804.8,0.0 1806.7,18.5 1802.8,36.8 1793.4,53.8 1779.5,69.0 1762.3,81.9 1743.5,92.6 1724.8,101.6 1707.3,109.7 1691.9,117.7 1678.8,126.7 1667.5,137.1 1657.2,149.0 1646.9,162.3 1635.5,176.2 1622.2,189.5 1606.8,201.2 1589.3,210.2 1570.2,215.8 1550.1,217.7 1530.0,216.0 1510.4,211.5 1491.8,205.1 1474.2,197.8 1457.3,190.6 1440.5,184.0 1423.3,178.3 1405.3,173.2 1386.6,168.1 1367.3,162.2 1348.3,154.6 1330.8,144.9 1315.8,132.5 1304.4,117.7 1297.4,100.9 1295.0,82.8 1296.8,64.5 1301.7,46.7 1308.3,29.9 1315.2,14.4 1320.8,0.0 1324.2,-13.8 1324.8,-27.7 1322.8,-42.3 1319.2,-58.3 1315.1,-75.8 1312.3,-94.4 1312.1,-113.7 1315.8,-132.5 1323.9,-149.8 1336.6,-164.7 1353.2,-176.2 1372.7,-184.3 1394.0,-189.0 1415.7,-190.9 1437.0,-191.1 1457.3,-190.6 1476.3,-190.4 1494.4,-191.1 1512.2,-193.1 1530.0,-196.0 1548.4,-199.2 1567.6,-201.8 1587.2,-202.8 1606.8,-201.2 1625.7,-196.6 1643.0,-188.8 1658.2,-178.1 1671.0,-165.3 1681.6,-151.1 1690.6,-136.7 1698.8,-122.7 1707.3,-109.7 1717.1,-97.6 1728.7,-86.2 1742.2,-74.8 1757.1,-62.8 1772.3,-49.5 1786.4,-34.6 1797.7,-17.9 1804.8,-0.0" fill="none" stroke="#32584f" stroke-width=".55" opacity=".5"/><polyline points="1822.1,0.0 1821.9,19.4 1815.6,38.1 1803.9,55.4 1788.0,70.7 1769.5,83.6 1750.2,94.6 1731.6,104.2 1714.9,113.2 1700.4,122.7 1688.2,133.3 1677.4,145.5 1667.1,159.1 1656.1,173.5 1643.6,187.9 1628.8,201.1 1611.7,212.0 1592.6,219.7 1572.0,223.7 1550.9,224.0 1530.0,221.1 1509.8,216.0 1490.6,209.6 1472.2,203.0 1454.1,196.9 1435.8,191.8 1416.7,187.5 1396.6,183.5 1375.8,178.9 1354.8,172.9 1334.8,164.6 1316.8,153.5 1302.3,139.5 1292.0,123.0 1286.6,104.5 1285.9,85.2 1289.2,66.0 1295.0,47.6 1301.8,30.5 1307.9,14.7 1312.1,0.0 1313.4,-14.4 1311.9,-29.1 1308.0,-44.9 1302.9,-62.2 1298.3,-80.9 1295.8,-100.6 1296.8,-120.5 1302.3,-139.5 1312.6,-156.5 1327.5,-170.7 1346.2,-181.5 1367.3,-188.8 1389.7,-193.1 1412.0,-195.2 1433.6,-196.1 1454.1,-196.9 1473.5,-198.4 1492.2,-201.1 1510.9,-204.7 1530.0,-208.9 1549.9,-212.7 1570.4,-215.1 1591.3,-215.1 1611.7,-212.0 1630.9,-205.5 1648.2,-195.6 1663.1,-183.2 1675.6,-168.9 1686.1,-154.1 1695.4,-139.4 1704.6,-125.8 1714.9,-113.2 1726.9,-101.7 1741.1,-90.7 1757.1,-79.3 1774.2,-66.9 1790.9,-52.8 1805.5,-36.8 1816.3,-19.0 1822.1,-0.0" fill="none" stroke="#32584f" stroke-width=".55" opacity=".5"/><polyline points="1838.1,0.0 1835.6,20.1 1826.8,39.3 1813.0,56.8 1795.5,72.1 1776.2,85.2 1756.9,96.7 1739.0,107.1 1723.3,117.4 1710.0,128.5 1698.6,140.9 1688.1,154.8 1677.5,169.7 1665.6,185.0 1651.6,199.5 1635.1,212.1 1616.2,221.8 1595.5,227.9 1573.6,230.3 1551.6,229.2 1530.0,225.4 1509.3,220.1 1489.4,214.2 1470.0,208.8 1450.6,204.3 1430.5,200.8 1409.4,197.8 1387.2,194.7 1364.5,190.4 1342.1,183.9 1321.3,174.5 1303.4,161.7 1289.7,145.9 1280.9,127.6 1277.2,107.7 1278.1,87.2 1282.5,67.2 1288.7,48.4 1295.1,31.1 1299.9,15.1 1302.1,0.0 1301.2,-15.0 1297.4,-30.8 1291.8,-47.8 1285.7,-66.3 1281.0,-86.2 1279.4,-106.7 1282.0,-127.0 1289.7,-145.9 1302.4,-162.5 1319.6,-175.9 1340.0,-185.9 1362.5,-192.7 1385.6,-197.0 1408.3,-199.6 1430.0,-201.8 1450.6,-204.3 1470.3,-207.7 1489.8,-212.2 1509.5,-217.5 1530.0,-222.6 1551.3,-226.5 1573.3,-228.3 1595.2,-226.9 1616.2,-221.8 1635.6,-213.1 1652.7,-201.3 1667.3,-187.3 1679.5,-172.0 1690.2,-156.8 1700.3,-142.3 1711.0,-129.2 1723.3,-117.4 1737.9,-106.5 1754.8,-95.7 1773.3,-84.2 1792.2,-71.2 1809.9,-56.2 1824.5,-39.0 1834.3,-20.0 1838.1,-0.0" fill="none" stroke="#477367" stroke-width=".9" opacity=".5"/><polyline points="1852.7,0.0 1847.7,20.7 1836.6,40.3 1820.9,57.9 1802.4,73.4 1782.9,86.9 1764.2,98.9 1747.4,110.5 1733.0,122.3 1720.8,135.1 1710.1,149.3 1699.7,164.7 1688.4,180.8 1675.2,196.5 1659.4,210.7 1641.0,222.3 1620.3,230.5 1598.0,234.9 1575.0,235.7 1552.2,233.5 1530.0,229.3 1508.7,224.2 1488.1,219.4 1467.6,215.5 1446.6,212.7 1424.6,210.9 1401.4,209.3 1377.2,206.8 1352.8,202.3 1329.3,194.9 1308.2,183.9 1290.8,169.4 1278.3,151.6 1271.1,131.5 1269.1,110.2 1271.4,88.8 1276.5,68.3 1282.5,49.3 1287.8,31.8 1290.8,15.6 1290.7,0.0 1287.4,-15.8 1281.5,-32.6 1274.4,-50.9 1267.9,-70.6 1263.7,-91.5 1263.5,-112.6 1268.2,-133.0 1278.3,-151.6 1293.5,-167.5 1312.7,-180.2 1334.7,-189.6 1358.1,-196.2 1381.5,-200.9 1404.3,-204.6 1426.0,-208.3 1446.6,-212.7 1466.8,-218.2 1487.1,-224.6 1508.1,-231.1 1530.0,-236.7 1552.8,-240.3 1576.0,-240.9 1598.8,-237.7 1620.3,-230.5 1639.7,-219.6 1656.6,-205.9 1670.8,-190.6 1683.1,-174.7 1694.3,-159.5 1705.6,-145.6 1718.2,-133.3 1733.0,-122.3 1750.3,-112.0 1769.9,-101.3 1790.6,-89.5 1811.0,-75.7 1829.0,-59.5 1842.9,-41.1 1851.1,-21.0 1852.7,-0.0" fill="none" stroke="#32584f" stroke-width=".55" opacity=".5"/><polyline points="1865.7,0.0 1858.2,21.3 1845.0,41.1 1828.0,58.9 1809.0,74.6 1790.0,88.6 1772.3,101.6 1757.0,114.5 1744.0,128.0 1732.9,142.6 1722.5,158.5 1711.8,175.2 1699.4,191.9 1684.6,207.6 1666.8,221.0 1646.4,231.3 1623.9,237.8 1600.2,240.6 1576.2,240.0 1552.7,237.1 1530.0,232.9 1508.1,228.7 1486.6,225.4 1464.9,223.3 1442.2,222.5 1418.1,222.3 1392.8,221.6 1366.7,219.4 1340.9,214.3 1316.7,205.6 1295.8,192.8 1279.3,176.2 1268.3,156.5 1262.8,134.8 1262.3,112.3 1265.5,90.2 1270.7,69.3 1276.0,50.2 1279.6,32.6 1280.4,16.2 1277.7,0.0 1272.0,-16.7 1264.3,-34.6 1256.2,-54.1 1249.8,-74.9 1246.7,-96.6 1248.4,-118.1 1255.6,-138.4 1268.3,-156.5 1285.7,-171.7 1306.8,-183.8 1329.9,-192.8 1353.8,-199.6 1377.3,-205.1 1399.9,-210.2 1421.4,-215.9 1442.2,-222.5 1462.9,-230.1 1484.2,-238.0 1506.5,-245.4 1530.0,-251.1 1554.3,-253.8 1578.6,-252.7 1602.1,-247.3 1623.9,-237.8 1643.2,-224.9 1659.8,-209.6 1673.9,-193.3 1686.5,-177.3 1698.6,-162.5 1711.5,-149.4 1726.4,-138.1 1744.0,-128.0 1764.1,-118.1 1786.2,-107.4 1808.7,-95.0 1829.9,-80.2 1847.8,-62.8 1860.4,-43.1 1866.6,-21.8 1865.7,-0.0" fill="none" stroke="#32584f" stroke-width=".55" opacity=".5"/><polyline points="1876.9,0.0 1867.1,21.7 1852.3,41.7 1834.5,59.8 1815.8,75.9 1797.7,90.7 1781.6,104.8 1767.9,119.2 1756.4,134.5 1746.1,150.9 1735.8,168.3 1724.3,186.0 1710.4,203.0 1693.5,218.1 1673.6,230.4 1651.1,239.1 1626.9,243.8 1602.0,245.1 1577.2,243.5 1553.1,240.4 1530.0,236.8 1507.5,234.0 1485.0,232.5 1461.7,232.5 1437.2,233.6 1411.1,234.8 1383.7,234.8 1355.9,232.3 1329.1,226.1 1304.7,215.7 1284.3,200.9 1269.1,182.2 1259.6,160.6 1255.7,137.4 1256.4,114.0 1260.1,91.4 1264.8,70.4 1268.7,51.3 1270.1,33.7 1268.2,16.8 1262.9,0.0 1255.0,-17.7 1245.9,-36.8 1237.5,-57.4 1231.8,-79.2 1230.5,-101.4 1234.5,-123.1 1244.4,-143.1 1259.6,-160.6 1279.2,-175.1 1301.6,-186.7 1325.5,-195.8 1349.5,-203.2 1372.7,-209.9 1394.8,-216.9 1416.1,-224.7 1437.2,-233.6 1458.6,-243.1 1481.1,-252.3 1505.0,-260.1 1530.0,-265.2 1555.7,-266.5 1581.0,-263.3 1605.1,-255.6 1626.9,-243.8 1646.0,-229.0 1662.4,-212.5 1676.7,-195.8 1690.0,-180.0 1703.4,-166.0 1718.4,-154.1 1736.0,-143.8 1756.4,-134.5 1779.3,-124.9 1803.5,-113.9 1827.4,-100.7 1848.8,-84.7 1865.7,-65.9 1876.6,-44.9 1880.3,-22.5 1876.9,-0.0" fill="none" stroke="#477367" stroke-width=".9" opacity=".5"/><polyline points="1886.4,0.0 1874.7,22.0 1858.9,42.3 1841.0,60.7 1823.1,77.4 1806.6,93.1 1792.4,108.6 1780.5,124.7 1770.1,141.8 1760.3,159.8 1749.6,178.4 1736.8,196.7 1720.9,213.5 1701.8,227.8 1679.6,238.6 1655.1,245.5 1629.4,248.6 1603.4,248.6 1578.0,246.5 1553.6,243.6 1530.0,241.3 1506.7,240.2 1483.0,240.9 1458.2,243.1 1431.6,246.0 1403.5,248.2 1374.2,248.4 1345.1,245.1 1317.6,237.5 1293.4,225.1 1274.0,208.0 1260.2,187.2 1252.4,163.9 1249.8,139.5 1251.2,115.4 1254.7,92.6 1258.3,71.7 1260.2,52.6 1259.0,34.9 1254.3,17.6 1246.4,0.0 1236.7,-18.8 1226.8,-39.0 1218.7,-60.7 1214.5,-83.3 1215.4,-105.9 1222.2,-127.4 1234.8,-147.0 1252.4,-163.9 1273.6,-177.9 1297.0,-189.3 1321.1,-198.7 1344.7,-207.2 1367.4,-215.6 1389.1,-224.8 1410.2,-234.9 1431.6,-246.0 1454.0,-257.1 1477.9,-267.1 1503.4,-274.8 1530.0,-278.7 1556.9,-278.2 1583.2,-272.7 1607.6,-262.5 1629.4,-248.6 1648.4,-232.2 1664.8,-214.9 1679.5,-198.2 1693.8,-183.2 1709.1,-170.3 1726.5,-159.7 1746.9,-150.5 1770.1,-141.8 1795.5,-132.2 1821.5,-120.7 1846.0,-106.4 1867.0,-89.0 1882.5,-68.8 1891.1,-46.5 1892.3,-23.2 1886.4,-0.0" fill="none" stroke="#32584f" stroke-width=".55" opacity=".5"/><polyline points="1894.4,0.0 1881.3,22.3 1865.1,42.9 1847.9,61.7 1831.5,79.1 1817.0,96.0 1804.8,113.1 1794.5,131.0 1785.2,149.8 1775.3,169.2 1763.6,188.7 1749.0,207.1 1730.8,223.3 1709.2,236.3 1684.8,245.4 1658.5,250.5 1631.4,252.2 1604.7,251.3 1578.9,249.3 1554.1,247.3 1530.0,246.6 1505.9,247.8 1480.8,250.8 1454.2,255.1 1425.6,259.5 1395.5,262.3 1364.6,262.2 1334.5,257.7 1306.8,248.1 1283.2,233.4 1265.0,214.1 1252.7,191.3 1246.3,166.5 1244.8,141.2 1246.3,116.8 1249.0,94.0 1250.8,73.3 1250.1,54.3 1246.0,36.3 1238.5,18.5 1228.4,0.0 1217.4,-19.9 1207.3,-41.3 1200.3,-63.9 1198.1,-87.1 1201.7,-109.8 1211.4,-131.1 1226.7,-150.1 1246.3,-166.5 1268.9,-180.2 1292.7,-191.7 1316.4,-202.0 1339.4,-211.9 1361.3,-222.4 1382.4,-234.0 1403.6,-246.5 1425.6,-259.5 1449.2,-271.8 1474.7,-282.1 1501.8,-289.0 1530.0,-291.4 1558.1,-288.5 1585.0,-280.5 1609.6,-268.0 1631.4,-252.2 1650.4,-234.7 1667.0,-217.2 1682.5,-201.0 1698.3,-187.1 1715.7,-175.7 1735.9,-166.3 1759.2,-158.1 1785.2,-149.8 1812.6,-139.9 1839.7,-127.5 1864.3,-111.9 1884.2,-93.0 1897.7,-71.3 1903.8,-47.8 1902.4,-23.7 1894.4,-0.0" fill="none" stroke="#32584f" stroke-width=".55" opacity=".5"/><polyline points="701.4,340.0 707.0,348.6 709.6,357.5 708.5,366.4 703.3,374.8 694.2,382.3 681.7,388.7 666.8,393.8 650.9,397.7 635.0,400.7 620.1,403.2 606.8,405.8 595.3,409.0 585.1,413.1 575.7,418.2 566.2,424.1 555.9,430.5 544.2,436.8 530.8,442.4 515.9,446.6 500.0,449.0 483.6,449.4 467.6,447.7 452.4,444.4 438.4,439.7 425.8,434.3 414.1,428.7 403.0,423.3 392.0,418.2 380.6,413.6 368.5,409.2 356.0,404.7 343.4,399.9 331.7,394.3 321.5,387.9 313.9,380.6 309.4,372.6 308.3,364.2 310.4,355.8 315.1,347.7 321.4,340.0 328.2,332.9 334.3,326.2 339.0,319.7 341.9,313.0 343.1,305.8 343.1,297.9 342.8,289.3 343.4,280.1 346.0,270.8 351.4,261.8 360.0,253.7 371.9,247.2 386.5,242.5 403.1,239.9 420.8,239.3 438.4,240.3 455.4,242.3 471.4,244.8 486.1,247.2 500.0,249.0 513.5,250.0 527.0,250.2 541.1,249.9 555.9,249.5 571.2,249.6 586.6,250.5 601.6,252.7 615.4,256.4 627.3,261.5 637.2,267.8 644.9,274.9 650.9,282.3 655.7,289.8 660.1,297.1 665.0,304.0 670.8,310.8 677.8,317.5 685.8,324.5 693.9,332.0 701.4,340.0" fill="none" stroke="#477367" stroke-width=".9" opacity=".5"/><polyline points="719.7,340.0 725.1,349.5 726.7,359.3 724.0,368.9 716.7,377.8 705.4,385.7 690.9,392.2 674.5,397.4 657.5,401.5 641.2,404.8 626.3,407.8 613.3,411.3 602.1,415.5 592.1,420.7 582.5,426.9 572.4,433.8 561.1,440.9 548.1,447.6 533.3,453.1 517.1,456.8 500.0,458.5 482.7,458.0 465.9,455.5 450.2,451.5 435.6,446.4 422.2,440.9 409.5,435.4 397.0,430.2 384.3,425.5 370.9,421.2 357.0,416.8 342.8,412.1 329.1,406.7 316.8,400.3 306.8,392.9 300.1,384.5 296.9,375.4 297.4,366.1 301.0,356.9 306.8,348.2 313.7,340.0 320.3,332.4 325.7,325.2 329.2,318.0 330.6,310.4 330.3,302.3 329.1,293.3 328.3,283.5 329.1,273.3 332.5,263.2 339.3,253.7 349.7,245.5 363.5,239.1 379.9,234.8 398.1,232.7 417.0,232.4 435.6,233.6 453.3,235.6 469.8,237.7 485.3,239.5 500.0,240.5 514.6,240.7 529.4,240.2 544.9,239.5 561.1,239.1 577.6,239.4 593.8,241.1 609.2,244.3 622.9,249.2 634.6,255.4 644.0,262.7 651.5,270.5 657.5,278.5 662.9,286.4 668.6,293.9 675.1,301.0 683.0,308.1 692.2,315.2 702.0,322.8 711.6,331.1 719.7,340.0" fill="none" stroke="#32584f" stroke-width=".55" opacity=".5"/><polyline points="738.3,340.0 743.0,350.4 743.2,361.0 738.4,371.3 728.9,380.6 715.4,388.7 699.1,395.4 681.5,400.8 664.0,405.1 647.6,408.9 633.1,412.7 620.6,417.1 609.7,422.5 599.7,428.9 589.8,436.2 578.9,444.0 566.4,451.6 552.0,458.3 535.8,463.4 518.2,466.5 500.0,467.3 481.9,465.9 464.4,462.7 448.1,458.1 432.9,452.8 418.6,447.4 404.6,442.3 390.5,437.6 375.8,433.4 360.5,429.3 344.7,424.9 329.0,419.8 314.5,413.6 302.1,406.3 292.7,397.7 287.2,388.2 285.6,378.1 287.7,367.8 292.7,357.9 299.3,348.6 306.3,340.0 312.3,331.9 316.5,324.1 318.3,316.2 318.0,307.7 316.3,298.4 314.2,288.3 313.2,277.5 314.5,266.4 319.1,255.6 327.6,245.8 340.0,237.7 355.8,231.5 374.0,227.7 393.6,226.0 413.6,226.0 432.9,227.2 451.1,228.8 468.2,230.3 484.3,231.2 500.0,231.3 515.8,230.7 532.0,229.6 548.9,228.6 566.4,228.4 583.9,229.4 600.7,232.0 616.2,236.4 629.7,242.4 641.0,249.8 650.1,258.0 657.5,266.5 664.0,274.9 670.4,283.0 677.6,290.6 686.3,297.8 696.4,305.1 707.8,312.8 719.3,321.0 730.0,330.1 738.3,340.0" fill="none" stroke="#32584f" stroke-width=".55" opacity=".5"/><polyline points="756.8,340.0 760.3,351.4 758.6,362.7 751.6,373.5 739.8,383.2 724.3,391.5 706.6,398.4 688.2,404.0 670.5,408.7 654.4,413.1 640.5,417.9 628.6,423.5 618.1,430.1 608.0,437.8 597.5,446.1 585.5,454.5 571.7,462.3 555.8,468.8 538.1,473.3 519.2,475.5 500.0,475.4 481.1,473.1 463.1,469.3 446.1,464.4 430.1,459.2 414.7,454.2 399.2,449.7 383.3,445.6 366.6,441.8 349.2,437.9 331.7,433.3 314.9,427.7 299.9,420.6 287.8,412.1 279.5,402.3 275.5,391.6 275.5,380.4 279.2,369.4 285.2,358.9 292.2,349.1 298.8,340.0 303.7,331.4 306.3,323.0 306.3,314.2 304.2,304.7 301.2,294.3 298.5,283.1 297.7,271.2 299.9,259.4 306.2,248.2 316.6,238.3 331.1,230.3 348.9,224.6 368.7,221.2 389.5,219.8 410.3,219.9 430.1,220.8 448.8,221.8 466.4,222.4 483.3,222.3 500.0,221.4 517.0,219.9 534.7,218.4 553.1,217.4 571.7,217.7 590.0,219.6 607.2,223.4 622.6,229.1 635.8,236.4 646.7,244.8 655.6,253.7 663.2,262.7 670.5,271.3 678.3,279.4 687.6,287.0 698.6,294.4 711.1,302.0 724.5,310.1 737.6,319.1 748.8,329.1 756.8,340.0" fill="none" stroke="#477367" stroke-width=".9" opacity=".5"/><polyline points="774.8,340.0 776.7,352.2 772.8,364.3 763.4,375.5 749.5,385.6 732.3,394.1 713.5,401.1 694.8,407.1 677.3,412.4 661.9,417.7 648.8,423.6 637.5,430.5 627.2,438.4 616.9,447.2 605.5,456.3 592.2,465.1 576.8,472.9 559.3,478.8 540.2,482.5 520.1,483.7 500.0,482.6 480.4,479.6 461.8,475.4 444.2,470.6 427.3,465.8 410.5,461.5 393.3,457.7 375.3,454.3 356.6,451.0 337.3,447.1 318.3,442.1 300.8,435.6 285.8,427.5 274.4,417.7 267.4,406.6 265.0,394.7 266.8,382.6 271.7,370.8 278.3,359.7 285.2,349.5 290.8,340.0 294.2,330.9 294.8,321.7 292.8,312.0 289.2,301.5 285.1,290.0 282.3,277.7 282.1,265.0 285.8,252.5 293.9,241.1 306.6,231.3 323.2,223.7 342.7,218.3 364.0,215.3 385.7,214.0 407.0,213.8 427.3,214.2 446.3,214.3 464.4,213.8 482.2,212.5 500.0,210.6 518.4,208.5 537.6,206.8 557.2,206.1 576.8,207.1 595.7,210.2 613.0,215.3 628.2,222.4 641.0,230.9 651.6,240.2 660.6,249.8 668.8,259.0 677.3,267.6 687.1,275.6 698.7,283.1 712.2,290.6 727.1,298.5 742.3,307.3 756.4,317.2 767.7,328.2 774.8,340.0" fill="none" stroke="#32584f" stroke-width=".55" opacity=".5"/><polyline points="792.1,340.0 791.9,353.1 785.6,365.7 773.9,377.4 758.0,387.7 739.5,396.4 720.2,403.8 701.6,410.3 684.9,416.4 670.4,422.8 658.2,429.9 647.4,438.1 637.1,447.3 626.1,457.0 613.6,466.7 598.8,475.7 581.7,483.0 562.6,488.2 542.0,490.8 520.9,491.0 500.0,489.1 479.8,485.6 460.6,481.3 442.2,476.9 424.1,472.8 405.8,469.4 386.7,466.5 366.6,463.7 345.8,460.7 324.8,456.6 304.8,451.0 286.8,443.5 272.3,434.1 262.0,422.9 256.6,410.5 255.9,397.5 259.2,384.5 265.0,372.1 271.8,360.6 277.9,349.9 282.1,340.0 283.4,330.3 281.9,320.4 278.0,309.7 272.9,298.0 268.3,285.4 265.8,272.1 266.8,258.7 272.3,245.9 282.6,234.4 297.5,224.9 316.2,217.6 337.3,212.7 359.7,209.8 382.0,208.4 403.6,207.7 424.1,207.2 443.5,206.2 462.2,204.4 480.9,201.9 500.0,199.1 519.9,196.5 540.4,194.9 561.3,194.9 581.7,197.0 600.9,201.4 618.2,208.1 633.1,216.5 645.6,226.1 656.1,236.1 665.4,246.0 674.6,255.2 684.9,263.6 696.9,271.4 711.1,278.9 727.1,286.5 744.2,294.9 760.9,304.4 775.5,315.2 786.3,327.2 792.1,340.0" fill="none" stroke="#32584f" stroke-width=".55" opacity=".5"/><polyline points="808.1,340.0 805.6,353.8 796.8,367.0 783.0,379.0 765.5,389.6 746.2,398.6 726.9,406.4 709.0,413.6 693.3,420.7 680.0,428.3 668.6,436.9 658.1,446.4 647.5,456.7 635.6,467.2 621.6,477.2 605.1,485.8 586.2,492.5 565.5,496.7 543.6,498.3 521.6,497.6 500.0,495.0 479.3,491.3 459.4,487.3 440.0,483.5 420.6,480.4 400.5,478.0 379.4,476.0 357.2,473.9 334.5,470.9 312.1,466.4 291.3,459.9 273.4,451.2 259.7,440.3 250.9,427.7 247.2,414.0 248.1,400.0 252.5,386.2 258.7,373.3 265.1,361.4 269.9,350.4 272.1,340.0 271.2,329.7 267.4,318.8 261.8,307.1 255.7,294.4 251.0,280.7 249.4,266.6 252.0,252.7 259.7,239.7 272.4,228.3 289.6,219.1 310.0,212.2 332.5,207.5 355.6,204.6 378.3,202.7 400.0,201.3 420.6,199.6 440.3,197.2 459.8,194.1 479.5,190.5 500.0,187.0 521.3,184.3 543.3,183.1 565.2,184.0 586.2,187.5 605.6,193.5 622.7,201.6 637.3,211.3 649.5,221.7 660.2,232.2 670.3,242.1 681.0,251.2 693.3,259.3 707.9,266.8 724.8,274.2 743.3,282.1 762.2,291.0 779.9,301.4 794.5,313.2 804.3,326.2 808.1,340.0" fill="none" stroke="#477367" stroke-width=".9" opacity=".5"/><polyline points="822.7,340.0 817.7,354.5 806.6,368.2 790.9,380.5 772.4,391.3 752.9,400.8 734.2,409.2 717.4,417.3 703.0,425.5 690.8,434.5 680.1,444.5 669.7,455.2 658.4,466.5 645.2,477.4 629.4,487.4 611.0,495.5 590.3,501.2 568.0,504.3 545.0,504.9 522.2,503.3 500.0,500.4 478.7,496.9 458.1,493.5 437.6,490.7 416.6,488.8 394.6,487.5 371.4,486.4 347.2,484.6 322.8,481.5 299.3,476.3 278.2,468.7 260.8,458.5 248.3,446.1 241.1,432.0 239.1,417.1 241.4,402.1 246.5,387.8 252.5,374.5 257.8,362.2 260.8,350.9 260.7,340.0 257.4,328.9 251.5,317.2 244.4,304.4 237.9,290.6 233.7,276.0 233.5,261.2 238.2,246.9 248.3,233.9 263.5,222.8 282.7,213.9 304.7,207.3 328.1,202.7 351.5,199.5 374.3,196.9 396.0,194.3 416.6,191.2 436.8,187.3 457.1,182.9 478.1,178.3 500.0,174.4 522.8,171.9 546.0,171.5 568.8,173.7 590.3,178.8 609.7,186.4 626.6,195.9 640.8,206.7 653.1,217.8 664.3,228.4 675.6,238.2 688.2,246.8 703.0,254.5 720.3,261.7 739.9,269.1 760.6,277.4 781.0,287.0 799.0,298.4 812.9,311.3 821.1,325.3 822.7,340.0" fill="none" stroke="#32584f" stroke-width=".55" opacity=".5"/><polyline points="835.7,340.0 828.2,355.1 815.0,369.2 798.0,381.9 779.0,393.0 760.0,403.0 742.3,412.2 727.0,421.4 714.0,431.0 702.9,441.4 692.5,452.6 681.8,464.5 669.4,476.4 654.6,487.5 636.8,497.1 616.4,504.4 593.9,509.0 570.2,511.0 546.2,510.6 522.7,508.5 500.0,505.6 478.1,502.6 456.6,500.2 434.9,498.7 412.2,498.1 388.1,498.0 362.8,497.5 336.7,495.9 310.9,492.3 286.7,486.1 265.8,477.0 249.3,465.3 238.3,451.2 232.8,435.8 232.3,419.8 235.5,404.1 240.7,389.3 246.0,375.7 249.6,363.2 250.4,351.5 247.7,340.0 242.0,328.1 234.3,315.4 226.2,301.5 219.8,286.7 216.7,271.4 218.4,256.1 225.6,241.6 238.3,228.8 255.7,217.9 276.8,209.4 299.9,202.9 323.8,198.1 347.3,194.2 369.9,190.6 391.4,186.6 412.2,181.9 432.9,176.5 454.2,170.8 476.5,165.6 500.0,161.6 524.3,159.6 548.6,160.4 572.1,164.2 593.9,171.0 613.2,180.2 629.8,191.0 643.9,202.6 656.5,214.0 668.6,224.5 681.5,233.8 696.4,241.8 714.0,249.0 734.1,256.1 756.2,263.6 778.7,272.5 799.9,283.0 817.8,295.4 830.4,309.4 836.6,324.5 835.7,340.0" fill="none" stroke="#32584f" stroke-width=".55" opacity=".5"/><polyline points="846.9,340.0 837.1,355.6 822.3,370.1 804.5,383.1 785.8,394.7 767.7,405.4 751.6,415.6 737.9,426.0 726.4,437.0 716.1,448.8 705.8,461.3 694.3,474.1 680.4,486.4 663.5,497.3 643.6,506.1 621.1,512.4 596.9,515.8 572.0,516.7 547.2,515.6 523.1,513.3 500.0,510.8 477.5,508.7 455.0,507.6 431.7,507.7 407.2,508.4 381.1,509.3 353.7,509.3 325.9,507.5 299.1,503.1 274.7,495.6 254.3,484.9 239.1,471.4 229.6,455.8 225.7,439.1 226.4,422.2 230.1,405.9 234.8,390.8 238.7,377.0 240.1,364.3 238.2,352.1 232.9,340.0 225.0,327.2 215.9,313.5 207.5,298.6 201.8,282.9 200.5,266.9 204.5,251.2 214.4,236.8 229.6,224.2 249.2,213.7 271.6,205.4 295.5,198.8 319.5,193.5 342.7,188.6 364.8,183.6 386.1,177.9 407.2,171.6 428.6,164.7 451.1,158.1 475.0,152.4 500.0,148.8 525.7,147.8 551.0,150.1 575.1,155.7 596.9,164.2 616.0,174.8 632.4,186.7 646.7,198.8 660.0,210.2 673.4,220.3 688.4,228.9 706.0,236.3 726.4,243.0 749.3,249.9 773.5,257.8 797.4,267.4 818.8,278.9 835.7,292.5 846.6,307.6 850.3,323.7 846.9,340.0" fill="none" stroke="#477367" stroke-width=".9" opacity=".5"/><polyline points="856.4,340.0 844.7,356.1 828.9,370.9 811.0,384.3 793.1,396.6 776.6,408.0 762.4,419.4 750.5,431.1 740.1,443.6 730.3,456.8 719.6,470.4 706.8,483.7 690.9,496.0 671.8,506.4 649.6,514.3 625.1,519.4 599.4,521.7 573.4,521.6 548.0,520.1 523.6,518.0 500.0,516.3 476.7,515.5 453.0,516.1 428.2,517.7 401.6,519.7 373.5,521.4 344.2,521.5 315.1,519.1 287.6,513.6 263.4,504.5 244.0,492.0 230.2,476.8 222.4,459.8 219.8,441.9 221.2,424.3 224.7,407.7 228.3,392.4 230.2,378.5 229.0,365.5 224.3,352.9 216.4,340.0 206.7,326.3 196.8,311.5 188.7,295.6 184.5,279.1 185.4,262.6 192.2,246.9 204.8,232.6 222.4,220.2 243.6,210.0 267.0,201.7 291.1,194.8 314.7,188.6 337.4,182.4 359.1,175.8 380.2,168.3 401.6,160.3 424.0,152.1 447.9,144.8 473.4,139.2 500.0,136.3 526.9,136.7 553.2,140.7 577.6,148.2 599.4,158.3 618.4,170.3 634.8,182.9 649.5,195.1 663.8,206.1 679.1,215.5 696.5,223.3 716.9,230.0 740.1,236.4 765.5,243.4 791.5,251.8 816.0,262.3 837.0,275.0 852.5,289.8 861.1,306.0 862.3,323.1 856.4,340.0" fill="none" stroke="#32584f" stroke-width=".55" opacity=".5"/><polyline points="864.4,340.0 851.3,356.5 835.1,371.7 817.9,385.6 801.5,398.5 787.0,411.0 774.8,423.7 764.5,436.9 755.2,450.8 745.3,465.2 733.6,479.6 719.0,493.2 700.8,505.2 679.2,514.8 654.8,521.5 628.5,525.3 601.4,526.6 574.7,525.9 548.9,524.4 524.1,523.0 500.0,522.4 475.9,523.3 450.8,525.6 424.2,528.7 395.6,531.9 365.5,534.1 334.6,533.9 304.5,530.6 276.8,523.6 253.2,512.7 235.0,498.4 222.7,481.5 216.3,463.2 214.8,444.5 216.3,426.4 219.0,409.6 220.8,394.2 220.1,380.2 216.0,366.9 208.5,353.7 198.4,340.0 187.4,325.3 177.3,309.5 170.3,292.7 168.1,275.6 171.7,258.7 181.4,243.0 196.7,228.9 216.3,216.8 238.9,206.7 262.7,198.2 286.4,190.6 309.4,183.2 331.3,175.4 352.4,166.9 373.6,157.6 395.6,148.1 419.2,138.9 444.7,131.3 471.8,126.2 500.0,124.4 528.1,126.5 555.0,132.5 579.6,141.7 601.4,153.4 620.4,166.4 637.0,179.3 652.5,191.3 668.3,201.6 685.7,210.0 705.9,217.0 729.2,223.0 755.2,229.2 782.6,236.5 809.7,245.7 834.3,257.2 854.2,271.2 867.7,287.2 873.8,304.6 872.4,322.5 864.4,340.0" fill="none" stroke="#32584f" stroke-width=".55" opacity=".5"/><path d="m800 185 150 50 210-55 180 110-500 40z M330 70l220-60 90 90-190 45z" fill="url(#fields)"/><g fill="none" stroke-linecap="round"><path d="M480-30q-50 100 20 160m8 20q-130-30-135-110 M1120 350q-10-100 40-180 M1230-20q-80 70-20 125 M1520 310q-50-40-40-135" stroke="#265963" stroke-width="9"/><path d="M480-30q-50 100 20 160m8 20q-130-30-135-110 M1120 350q-10-100 40-180 M1230-20q-80 70-20 125 M1520 310q-50-40-40-135" stroke="#429397" stroke-width="2" opacity=".65"/><use href="#river" stroke="#0b252d" stroke-width="61"/><use href="#river" stroke="#66b2ad" stroke-width="46" opacity=".3"/><use href="#river" stroke="url(#water)" stroke-width="39"/><use href="#river" stroke="#5cbbbd" stroke-width="1.1" opacity=".5"/><path d="M10 202C140 190 124 25 253 44S400 205 500 142 610-25 773 36 910 206 1031 124 1165-5 1280 64 1380 184 1490 110 1590 194 1700 115" stroke="#a6aa8a" stroke-width="1.1" opacity=".36"/><path d="M0 305C90 310 152 125 230 151S370 294 530 226 625 88 738 137 945 297 1049 218 1150 105 1222 156 1370 285 1487 205 1633 277 1700 234" stroke="#a6aa8a" stroke-width=".8" opacity=".3"/></g><g font-family="sans-serif" font-size="11" letter-spacing="4" fill="#9bcecb" opacity=".6"><text x="730" y="106" transform="rotate(20 730 106)">示 意 河 道</text><text x="1320" y="46" font-size="9" fill="#8daa9b">地形纹理 · 非实测</text></g></svg>
